solid OpenSCAD_Model
  facet normal -1 0 0
    outer loop
      vertex 30.48 -15.24 -1
      vertex 30.48 15.24 1
      vertex 30.48 15.24 -1
    endloop
  endfacet
  facet normal -1 -0 0
    outer loop
      vertex 30.48 15.24 1
      vertex 30.48 -15.24 -1
      vertex 30.48 -15.24 1
    endloop
  endfacet
  facet normal 0 0 1
    outer loop
      vertex 60.96 15.24 1
      vertex 58.96 13.24 1
      vertex 60.96 -15.24 1
    endloop
  endfacet
  facet normal 0 0 1
    outer loop
      vertex 60.96 15.24 1
      vertex 32.48 13.24 1
      vertex 58.96 13.24 1
    endloop
  endfacet
  facet normal 0 0 1
    outer loop
      vertex 32.48 13.24 1
      vertex 30.48 15.24 1
      vertex 32.48 -13.24 1
    endloop
  endfacet
  facet normal -0 0 1
    outer loop
      vertex 30.48 15.24 1
      vertex 32.48 13.24 1
      vertex 60.96 15.24 1
    endloop
  endfacet
  facet normal -0 0 1
    outer loop
      vertex 58.96 -13.24 1
      vertex 60.96 -15.24 1
      vertex 58.96 13.24 1
    endloop
  endfacet
  facet normal -0 0 1
    outer loop
      vertex 32.48 -13.24 1
      vertex 60.96 -15.24 1
      vertex 58.96 -13.24 1
    endloop
  endfacet
  facet normal 0 0 1
    outer loop
      vertex 32.48 -13.24 1
      vertex 30.48 -15.24 1
      vertex 60.96 -15.24 1
    endloop
  endfacet
  facet normal 0 0 1
    outer loop
      vertex 30.48 -15.24 1
      vertex 32.48 -13.24 1
      vertex 30.48 15.24 1
    endloop
  endfacet
  facet normal 1 -0 0
    outer loop
      vertex 60.96 -15.24 1
      vertex 60.96 15.24 -1
      vertex 60.96 15.24 1
    endloop
  endfacet
  facet normal 1 0 0
    outer loop
      vertex 60.96 15.24 -1
      vertex 60.96 -15.24 1
      vertex 60.96 -15.24 -1
    endloop
  endfacet
  facet normal 0 0 -1
    outer loop
      vertex 49.8065 -1.59326 -1
      vertex 41.6335 -1.59326 -1
      vertex 49.8065 1.59326 -1
    endloop
  endfacet
  facet normal 0 0 -1
    outer loop
      vertex 49.8065 1.59326 -1
      vertex 41.6981 1.79209 -1
      vertex 41.72 2 -1
    endloop
  endfacet
  facet normal 0 0 -1
    outer loop
      vertex 41.6335 1.59326 -1
      vertex 49.8065 1.59326 -1
      vertex 41.6335 -1.59326 -1
    endloop
  endfacet
  facet normal 0 0 -1
    outer loop
      vertex 49.8065 1.59326 -1
      vertex 41.6335 1.59326 -1
      vertex 41.6981 1.79209 -1
    endloop
  endfacet
  facet normal 0 0 -1
    outer loop
      vertex 41.529 -1.41221 -1
      vertex 41.6335 1.59326 -1
      vertex 41.6335 -1.59326 -1
    endloop
  endfacet
  facet normal 0 0 -1
    outer loop
      vertex 41.529 -1.41221 -1
      vertex 41.529 1.41221 -1
      vertex 41.6335 1.59326 -1
    endloop
  endfacet
  facet normal 0 0 -1
    outer loop
      vertex 41.3891 -1.25686 -1
      vertex 41.529 1.41221 -1
      vertex 41.529 -1.41221 -1
    endloop
  endfacet
  facet normal 0 0 -1
    outer loop
      vertex 41.3891 -1.25686 -1
      vertex 41.3891 1.25686 -1
      vertex 41.529 1.41221 -1
    endloop
  endfacet
  facet normal 0 0 -1
    outer loop
      vertex 41.22 -1.13397 -1
      vertex 41.3891 1.25686 -1
      vertex 41.3891 -1.25686 -1
    endloop
  endfacet
  facet normal 0 0 -1
    outer loop
      vertex 41.22 -1.13397 -1
      vertex 41.22 1.13397 -1
      vertex 41.3891 1.25686 -1
    endloop
  endfacet
  facet normal 0 0 -1
    outer loop
      vertex 41.029 -1.04894 -1
      vertex 41.22 1.13397 -1
      vertex 41.22 -1.13397 -1
    endloop
  endfacet
  facet normal 0 0 -1
    outer loop
      vertex 41.029 -1.04894 -1
      vertex 41.029 1.04894 -1
      vertex 41.22 1.13397 -1
    endloop
  endfacet
  facet normal 0 0 -1
    outer loop
      vertex 40.8245 -1.00548 -1
      vertex 41.029 1.04894 -1
      vertex 41.029 -1.04894 -1
    endloop
  endfacet
  facet normal 0 0 -1
    outer loop
      vertex 40.8245 -1.00548 -1
      vertex 40.8245 1.00548 -1
      vertex 41.029 1.04894 -1
    endloop
  endfacet
  facet normal 0 0 -1
    outer loop
      vertex 40.6155 -1.00548 -1
      vertex 40.8245 1.00548 -1
      vertex 40.8245 -1.00548 -1
    endloop
  endfacet
  facet normal 0 0 -1
    outer loop
      vertex 40.6155 -1.00548 -1
      vertex 40.6155 1.00548 -1
      vertex 40.8245 1.00548 -1
    endloop
  endfacet
  facet normal 0 0 -1
    outer loop
      vertex 40.411 -1.04894 -1
      vertex 40.6155 1.00548 -1
      vertex 40.6155 -1.00548 -1
    endloop
  endfacet
  facet normal 0 0 -1
    outer loop
      vertex 40.411 -1.04894 -1
      vertex 40.411 1.04894 -1
      vertex 40.6155 1.00548 -1
    endloop
  endfacet
  facet normal 0 0 -1
    outer loop
      vertex 40.22 -1.13397 -1
      vertex 40.411 1.04894 -1
      vertex 40.411 -1.04894 -1
    endloop
  endfacet
  facet normal 0 0 -1
    outer loop
      vertex 40.22 -1.13397 -1
      vertex 40.22 1.13397 -1
      vertex 40.411 1.04894 -1
    endloop
  endfacet
  facet normal 0 0 -1
    outer loop
      vertex 40.0509 -1.25686 -1
      vertex 40.22 1.13397 -1
      vertex 40.22 -1.13397 -1
    endloop
  endfacet
  facet normal 0 0 -1
    outer loop
      vertex 40.0509 -1.25686 -1
      vertex 40.0509 1.25686 -1
      vertex 40.22 1.13397 -1
    endloop
  endfacet
  facet normal 0 0 -1
    outer loop
      vertex 39.911 -1.41221 -1
      vertex 40.0509 1.25686 -1
      vertex 40.0509 -1.25686 -1
    endloop
  endfacet
  facet normal 0 0 -1
    outer loop
      vertex 39.911 -1.41221 -1
      vertex 39.911 1.41221 -1
      vertex 40.0509 1.25686 -1
    endloop
  endfacet
  facet normal 0 0 -1
    outer loop
      vertex 39.8065 -1.59326 -1
      vertex 39.911 1.41221 -1
      vertex 39.911 -1.41221 -1
    endloop
  endfacet
  facet normal 0 0 -1
    outer loop
      vertex 39.8065 -1.59326 -1
      vertex 39.8065 1.59326 -1
      vertex 39.911 1.41221 -1
    endloop
  endfacet
  facet normal 0 0 -1
    outer loop
      vertex 39.7419 -1.79209 -1
      vertex 39.8065 1.59326 -1
      vertex 39.8065 -1.59326 -1
    endloop
  endfacet
  facet normal 0 0 -1
    outer loop
      vertex 39.7419 -1.79209 -1
      vertex 39.7419 1.79209 -1
      vertex 39.8065 1.59326 -1
    endloop
  endfacet
  facet normal 0 0 -1
    outer loop
      vertex 39.72 -2 -1
      vertex 39.7419 1.79209 -1
      vertex 39.7419 -1.79209 -1
    endloop
  endfacet
  facet normal -0 0 -1
    outer loop
      vertex 39.7419 1.79209 -1
      vertex 39.72 -2 -1
      vertex 39.72 2 -1
    endloop
  endfacet
  facet normal 0 0 -1
    outer loop
      vertex 51.6981 -1.79209 -1
      vertex 51.72 2 -1
      vertex 51.72 -2 -1
    endloop
  endfacet
  facet normal 0 0 -1
    outer loop
      vertex 51.6981 -1.79209 -1
      vertex 51.6981 1.79209 -1
      vertex 51.72 2 -1
    endloop
  endfacet
  facet normal 0 0 -1
    outer loop
      vertex 51.6335 -1.59326 -1
      vertex 51.6981 1.79209 -1
      vertex 51.6981 -1.79209 -1
    endloop
  endfacet
  facet normal 0 0 -1
    outer loop
      vertex 51.6335 -1.59326 -1
      vertex 51.6335 1.59326 -1
      vertex 51.6981 1.79209 -1
    endloop
  endfacet
  facet normal 0 0 -1
    outer loop
      vertex 51.529 -1.41221 -1
      vertex 51.6335 1.59326 -1
      vertex 51.6335 -1.59326 -1
    endloop
  endfacet
  facet normal 0 0 -1
    outer loop
      vertex 51.529 -1.41221 -1
      vertex 51.529 1.41221 -1
      vertex 51.6335 1.59326 -1
    endloop
  endfacet
  facet normal 0 0 -1
    outer loop
      vertex 51.3891 -1.25686 -1
      vertex 51.529 1.41221 -1
      vertex 51.529 -1.41221 -1
    endloop
  endfacet
  facet normal 0 0 -1
    outer loop
      vertex 51.3891 -1.25686 -1
      vertex 51.3891 1.25686 -1
      vertex 51.529 1.41221 -1
    endloop
  endfacet
  facet normal 0 0 -1
    outer loop
      vertex 51.22 -1.13397 -1
      vertex 51.3891 1.25686 -1
      vertex 51.3891 -1.25686 -1
    endloop
  endfacet
  facet normal 0 0 -1
    outer loop
      vertex 51.22 -1.13397 -1
      vertex 51.22 1.13397 -1
      vertex 51.3891 1.25686 -1
    endloop
  endfacet
  facet normal 0 0 -1
    outer loop
      vertex 51.029 -1.04894 -1
      vertex 51.22 1.13397 -1
      vertex 51.22 -1.13397 -1
    endloop
  endfacet
  facet normal 0 0 -1
    outer loop
      vertex 51.029 -1.04894 -1
      vertex 51.029 1.04894 -1
      vertex 51.22 1.13397 -1
    endloop
  endfacet
  facet normal 0 0 -1
    outer loop
      vertex 50.8245 -1.00548 -1
      vertex 51.029 1.04894 -1
      vertex 51.029 -1.04894 -1
    endloop
  endfacet
  facet normal 0 0 -1
    outer loop
      vertex 50.8245 -1.00548 -1
      vertex 50.8245 1.00548 -1
      vertex 51.029 1.04894 -1
    endloop
  endfacet
  facet normal 0 0 -1
    outer loop
      vertex 50.6155 -1.00548 -1
      vertex 50.8245 1.00548 -1
      vertex 50.8245 -1.00548 -1
    endloop
  endfacet
  facet normal 0 0 -1
    outer loop
      vertex 50.6155 -1.00548 -1
      vertex 50.6155 1.00548 -1
      vertex 50.8245 1.00548 -1
    endloop
  endfacet
  facet normal 0 0 -1
    outer loop
      vertex 50.411 -1.04894 -1
      vertex 50.6155 1.00548 -1
      vertex 50.6155 -1.00548 -1
    endloop
  endfacet
  facet normal 0 0 -1
    outer loop
      vertex 50.411 -1.04894 -1
      vertex 50.411 1.04894 -1
      vertex 50.6155 1.00548 -1
    endloop
  endfacet
  facet normal 0 0 -1
    outer loop
      vertex 50.22 -1.13397 -1
      vertex 50.411 1.04894 -1
      vertex 50.411 -1.04894 -1
    endloop
  endfacet
  facet normal 0 0 -1
    outer loop
      vertex 50.22 -1.13397 -1
      vertex 50.22 1.13397 -1
      vertex 50.411 1.04894 -1
    endloop
  endfacet
  facet normal 0 0 -1
    outer loop
      vertex 50.0509 -1.25686 -1
      vertex 50.22 1.13397 -1
      vertex 50.22 -1.13397 -1
    endloop
  endfacet
  facet normal 0 0 -1
    outer loop
      vertex 50.0509 -1.25686 -1
      vertex 50.0509 1.25686 -1
      vertex 50.22 1.13397 -1
    endloop
  endfacet
  facet normal 0 0 -1
    outer loop
      vertex 49.911 -1.41221 -1
      vertex 50.0509 1.25686 -1
      vertex 50.0509 -1.25686 -1
    endloop
  endfacet
  facet normal 0 0 -1
    outer loop
      vertex 49.911 -1.41221 -1
      vertex 49.911 1.41221 -1
      vertex 50.0509 1.25686 -1
    endloop
  endfacet
  facet normal 0 0 -1
    outer loop
      vertex 49.8065 -1.59326 -1
      vertex 49.911 1.41221 -1
      vertex 49.911 -1.41221 -1
    endloop
  endfacet
  facet normal 0 0 -1
    outer loop
      vertex 49.8065 -1.59326 -1
      vertex 49.8065 1.59326 -1
      vertex 49.911 1.41221 -1
    endloop
  endfacet
  facet normal 0 0 -1
    outer loop
      vertex 41.6981 -1.79209 -1
      vertex 49.7419 -1.79209 -1
      vertex 41.72 -2 -1
    endloop
  endfacet
  facet normal 0 0 -1
    outer loop
      vertex 49.7419 -1.79209 -1
      vertex 41.6981 -1.79209 -1
      vertex 49.8065 -1.59326 -1
    endloop
  endfacet
  facet normal 0 0 -1
    outer loop
      vertex 41.72 -2 -1
      vertex 49.7419 -1.79209 -1
      vertex 49.72 -2 -1
    endloop
  endfacet
  facet normal 0 0 -1
    outer loop
      vertex 41.6335 -1.59326 -1
      vertex 49.8065 -1.59326 -1
      vertex 41.6981 -1.79209 -1
    endloop
  endfacet
  facet normal 0 0 -1
    outer loop
      vertex 60.96 -15.24 -1
      vertex 51.72 -2 -1
      vertex 60.96 15.24 -1
    endloop
  endfacet
  facet normal 0 0 -1
    outer loop
      vertex 60.96 -15.24 -1
      vertex 51.6981 -2.20791 -1
      vertex 51.72 -2 -1
    endloop
  endfacet
  facet normal 0 0 -1
    outer loop
      vertex 60.96 -15.24 -1
      vertex 51.6335 -2.40674 -1
      vertex 51.6981 -2.20791 -1
    endloop
  endfacet
  facet normal 0 0 -1
    outer loop
      vertex 60.96 -15.24 -1
      vertex 51.529 -2.58778 -1
      vertex 51.6335 -2.40674 -1
    endloop
  endfacet
  facet normal 0 0 -1
    outer loop
      vertex 60.96 -15.24 -1
      vertex 51.3891 -2.74314 -1
      vertex 51.529 -2.58778 -1
    endloop
  endfacet
  facet normal 0 0 -1
    outer loop
      vertex 60.96 -15.24 -1
      vertex 51.22 -2.86602 -1
      vertex 51.3891 -2.74314 -1
    endloop
  endfacet
  facet normal 0 0 -1
    outer loop
      vertex 60.96 -15.24 -1
      vertex 51.029 -2.95106 -1
      vertex 51.22 -2.86602 -1
    endloop
  endfacet
  facet normal 0 0 -1
    outer loop
      vertex 60.96 -15.24 -1
      vertex 50.8245 -2.99452 -1
      vertex 51.029 -2.95106 -1
    endloop
  endfacet
  facet normal 0 0 -1
    outer loop
      vertex 60.96 -15.24 -1
      vertex 50.6155 -2.99452 -1
      vertex 50.8245 -2.99452 -1
    endloop
  endfacet
  facet normal 0 0 -1
    outer loop
      vertex 60.96 -15.24 -1
      vertex 50.411 -2.95106 -1
      vertex 50.6155 -2.99452 -1
    endloop
  endfacet
  facet normal 0 0 -1
    outer loop
      vertex 41.029 -2.95106 -1
      vertex 50.411 -2.95106 -1
      vertex 60.96 -15.24 -1
    endloop
  endfacet
  facet normal 0 0 -1
    outer loop
      vertex 50.411 -2.95106 -1
      vertex 41.029 -2.95106 -1
      vertex 50.22 -2.86602 -1
    endloop
  endfacet
  facet normal 0 -0 -1
    outer loop
      vertex 41.22 -2.86602 -1
      vertex 50.22 -2.86602 -1
      vertex 41.029 -2.95106 -1
    endloop
  endfacet
  facet normal 0 0 -1
    outer loop
      vertex 49.8065 1.59326 -1
      vertex 41.72 2 -1
      vertex 49.7419 1.79209 -1
    endloop
  endfacet
  facet normal 0 0 -1
    outer loop
      vertex 49.7419 -2.20791 -1
      vertex 41.72 -2 -1
      vertex 49.72 -2 -1
    endloop
  endfacet
  facet normal 0 0 -1
    outer loop
      vertex 41.6981 -2.20791 -1
      vertex 49.7419 -2.20791 -1
      vertex 49.8065 -2.40674 -1
    endloop
  endfacet
  facet normal 0 0 -1
    outer loop
      vertex 41.6335 -2.40674 -1
      vertex 49.8065 -2.40674 -1
      vertex 49.911 -2.58778 -1
    endloop
  endfacet
  facet normal 0 0 -1
    outer loop
      vertex 50.22 -2.86602 -1
      vertex 41.22 -2.86602 -1
      vertex 50.0509 -2.74314 -1
    endloop
  endfacet
  facet normal 0 0 -1
    outer loop
      vertex 49.7419 -2.20791 -1
      vertex 41.6981 -2.20791 -1
      vertex 41.72 -2 -1
    endloop
  endfacet
  facet normal 0 0 -1
    outer loop
      vertex 49.8065 -2.40674 -1
      vertex 41.6335 -2.40674 -1
      vertex 41.6981 -2.20791 -1
    endloop
  endfacet
  facet normal 0 0 -1
    outer loop
      vertex 49.911 -2.58778 -1
      vertex 41.529 -2.58778 -1
      vertex 41.6335 -2.40674 -1
    endloop
  endfacet
  facet normal -0 0 -1
    outer loop
      vertex 49.911 -2.58778 -1
      vertex 41.3891 -2.74314 -1
      vertex 41.529 -2.58778 -1
    endloop
  endfacet
  facet normal 0 0 -1
    outer loop
      vertex 50.0509 -2.74314 -1
      vertex 41.3891 -2.74314 -1
      vertex 49.911 -2.58778 -1
    endloop
  endfacet
  facet normal 0 -0 -1
    outer loop
      vertex 41.3891 -2.74314 -1
      vertex 50.0509 -2.74314 -1
      vertex 41.22 -2.86602 -1
    endloop
  endfacet
  facet normal 0 0 -1
    outer loop
      vertex 30.48 -15.24 -1
      vertex 41.029 -2.95106 -1
      vertex 60.96 -15.24 -1
    endloop
  endfacet
  facet normal 0 0 -1
    outer loop
      vertex 41.029 -2.95106 -1
      vertex 30.48 -15.24 -1
      vertex 40.8245 -2.99452 -1
    endloop
  endfacet
  facet normal -0 0 -1
    outer loop
      vertex 40.8245 -2.99452 -1
      vertex 30.48 -15.24 -1
      vertex 40.6155 -2.99452 -1
    endloop
  endfacet
  facet normal -0 0 -1
    outer loop
      vertex 40.6155 -2.99452 -1
      vertex 30.48 -15.24 -1
      vertex 40.411 -2.95106 -1
    endloop
  endfacet
  facet normal -0 0 -1
    outer loop
      vertex 39.72 -2 -1
      vertex 30.48 -15.24 -1
      vertex 39.72 2 -1
    endloop
  endfacet
  facet normal -0 0 -1
    outer loop
      vertex 39.7419 -2.20791 -1
      vertex 30.48 -15.24 -1
      vertex 39.72 -2 -1
    endloop
  endfacet
  facet normal -0 0 -1
    outer loop
      vertex 39.8065 -2.40674 -1
      vertex 30.48 -15.24 -1
      vertex 39.7419 -2.20791 -1
    endloop
  endfacet
  facet normal -0 0 -1
    outer loop
      vertex 39.911 -2.58778 -1
      vertex 30.48 -15.24 -1
      vertex 39.8065 -2.40674 -1
    endloop
  endfacet
  facet normal -0 0 -1
    outer loop
      vertex 40.0509 -2.74314 -1
      vertex 30.48 -15.24 -1
      vertex 39.911 -2.58778 -1
    endloop
  endfacet
  facet normal -0 0 -1
    outer loop
      vertex 40.22 -2.86602 -1
      vertex 30.48 -15.24 -1
      vertex 40.0509 -2.74314 -1
    endloop
  endfacet
  facet normal -0 0 -1
    outer loop
      vertex 40.411 -2.95106 -1
      vertex 30.48 -15.24 -1
      vertex 40.22 -2.86602 -1
    endloop
  endfacet
  facet normal 0 0 -1
    outer loop
      vertex 51.72 2 -1
      vertex 60.96 15.24 -1
      vertex 51.72 -2 -1
    endloop
  endfacet
  facet normal 0 0 -1
    outer loop
      vertex 51.6981 2.20791 -1
      vertex 60.96 15.24 -1
      vertex 51.72 2 -1
    endloop
  endfacet
  facet normal 0 0 -1
    outer loop
      vertex 51.6335 2.40674 -1
      vertex 60.96 15.24 -1
      vertex 51.6981 2.20791 -1
    endloop
  endfacet
  facet normal 0 0 -1
    outer loop
      vertex 51.529 2.58778 -1
      vertex 60.96 15.24 -1
      vertex 51.6335 2.40674 -1
    endloop
  endfacet
  facet normal 0 0 -1
    outer loop
      vertex 51.3891 2.74314 -1
      vertex 60.96 15.24 -1
      vertex 51.529 2.58778 -1
    endloop
  endfacet
  facet normal 0 0 -1
    outer loop
      vertex 51.22 2.86602 -1
      vertex 60.96 15.24 -1
      vertex 51.3891 2.74314 -1
    endloop
  endfacet
  facet normal 0 0 -1
    outer loop
      vertex 51.029 2.95106 -1
      vertex 60.96 15.24 -1
      vertex 51.22 2.86602 -1
    endloop
  endfacet
  facet normal 0 0 -1
    outer loop
      vertex 50.8245 2.99452 -1
      vertex 60.96 15.24 -1
      vertex 51.029 2.95106 -1
    endloop
  endfacet
  facet normal 0 0 -1
    outer loop
      vertex 50.6155 2.99452 -1
      vertex 60.96 15.24 -1
      vertex 50.8245 2.99452 -1
    endloop
  endfacet
  facet normal 0 0 -1
    outer loop
      vertex 50.411 2.95106 -1
      vertex 60.96 15.24 -1
      vertex 50.6155 2.99452 -1
    endloop
  endfacet
  facet normal 0 0 -1
    outer loop
      vertex 41.029 2.95106 -1
      vertex 50.411 2.95106 -1
      vertex 50.22 2.86602 -1
    endloop
  endfacet
  facet normal 0 0 -1
    outer loop
      vertex 41.22 2.86602 -1
      vertex 50.22 2.86602 -1
      vertex 50.0509 2.74314 -1
    endloop
  endfacet
  facet normal 0 0 -1
    outer loop
      vertex 41.3891 2.74314 -1
      vertex 50.0509 2.74314 -1
      vertex 49.911 2.58778 -1
    endloop
  endfacet
  facet normal 0 0 -1
    outer loop
      vertex 49.7419 1.79209 -1
      vertex 41.72 2 -1
      vertex 49.72 2 -1
    endloop
  endfacet
  facet normal 0 0 -1
    outer loop
      vertex 49.72 2 -1
      vertex 41.72 2 -1
      vertex 49.7419 2.20791 -1
    endloop
  endfacet
  facet normal 0 0 -1
    outer loop
      vertex 41.6981 2.20791 -1
      vertex 49.7419 2.20791 -1
      vertex 41.72 2 -1
    endloop
  endfacet
  facet normal 0 0 -1
    outer loop
      vertex 49.7419 2.20791 -1
      vertex 41.6981 2.20791 -1
      vertex 49.8065 2.40674 -1
    endloop
  endfacet
  facet normal 0 0 -1
    outer loop
      vertex 41.6335 2.40674 -1
      vertex 49.8065 2.40674 -1
      vertex 41.6981 2.20791 -1
    endloop
  endfacet
  facet normal 0 0 -1
    outer loop
      vertex 49.8065 2.40674 -1
      vertex 41.6335 2.40674 -1
      vertex 49.911 2.58778 -1
    endloop
  endfacet
  facet normal 0 0 -1
    outer loop
      vertex 41.529 2.58778 -1
      vertex 49.911 2.58778 -1
      vertex 41.6335 2.40674 -1
    endloop
  endfacet
  facet normal 0 0 -1
    outer loop
      vertex 41.3891 2.74314 -1
      vertex 49.911 2.58778 -1
      vertex 41.529 2.58778 -1
    endloop
  endfacet
  facet normal 0 0 -1
    outer loop
      vertex 50.0509 2.74314 -1
      vertex 41.3891 2.74314 -1
      vertex 41.22 2.86602 -1
    endloop
  endfacet
  facet normal 0 0 -1
    outer loop
      vertex 50.22 2.86602 -1
      vertex 41.22 2.86602 -1
      vertex 41.029 2.95106 -1
    endloop
  endfacet
  facet normal 0 0 -1
    outer loop
      vertex 50.411 2.95106 -1
      vertex 41.029 2.95106 -1
      vertex 60.96 15.24 -1
    endloop
  endfacet
  facet normal 0 0 -1
    outer loop
      vertex 30.48 15.24 -1
      vertex 41.029 2.95106 -1
      vertex 40.8245 2.99452 -1
    endloop
  endfacet
  facet normal 0 0 -1
    outer loop
      vertex 30.48 15.24 -1
      vertex 40.8245 2.99452 -1
      vertex 40.6155 2.99452 -1
    endloop
  endfacet
  facet normal 0 0 -1
    outer loop
      vertex 30.48 15.24 -1
      vertex 40.6155 2.99452 -1
      vertex 40.411 2.95106 -1
    endloop
  endfacet
  facet normal 0 0 -1
    outer loop
      vertex 30.48 15.24 -1
      vertex 40.411 2.95106 -1
      vertex 40.22 2.86602 -1
    endloop
  endfacet
  facet normal 0 0 -1
    outer loop
      vertex 30.48 15.24 -1
      vertex 39.72 2 -1
      vertex 30.48 -15.24 -1
    endloop
  endfacet
  facet normal 0 0 -1
    outer loop
      vertex 39.72 2 -1
      vertex 30.48 15.24 -1
      vertex 39.7419 2.20791 -1
    endloop
  endfacet
  facet normal 0 0 -1
    outer loop
      vertex 41.029 2.95106 -1
      vertex 30.48 15.24 -1
      vertex 60.96 15.24 -1
    endloop
  endfacet
  facet normal 0 0 -1
    outer loop
      vertex 40.0509 2.74314 -1
      vertex 30.48 15.24 -1
      vertex 40.22 2.86602 -1
    endloop
  endfacet
  facet normal 0 0 -1
    outer loop
      vertex 39.911 2.58778 -1
      vertex 30.48 15.24 -1
      vertex 40.0509 2.74314 -1
    endloop
  endfacet
  facet normal 0 0 -1
    outer loop
      vertex 39.8065 2.40674 -1
      vertex 30.48 15.24 -1
      vertex 39.911 2.58778 -1
    endloop
  endfacet
  facet normal 0 0 -1
    outer loop
      vertex 39.7419 2.20791 -1
      vertex 30.48 15.24 -1
      vertex 39.8065 2.40674 -1
    endloop
  endfacet
  facet normal 0 -1 0
    outer loop
      vertex 30.48 -15.24 -1
      vertex 60.96 -15.24 1
      vertex 30.48 -15.24 1
    endloop
  endfacet
  facet normal 0 -1 -0
    outer loop
      vertex 60.96 -15.24 1
      vertex 30.48 -15.24 -1
      vertex 60.96 -15.24 -1
    endloop
  endfacet
  facet normal 0 1 -0
    outer loop
      vertex 60.96 15.24 -1
      vertex 30.48 15.24 1
      vertex 60.96 15.24 1
    endloop
  endfacet
  facet normal 0 1 0
    outer loop
      vertex 30.48 15.24 1
      vertex 60.96 15.24 -1
      vertex 30.48 15.24 -1
    endloop
  endfacet
  facet normal -1 0 0
    outer loop
      vertex 32.48 -13.24 1
      vertex 32.48 13.24 2
      vertex 32.48 13.24 1
    endloop
  endfacet
  facet normal -1 -0 0
    outer loop
      vertex 32.48 13.24 2
      vertex 32.48 -13.24 1
      vertex 32.48 -13.24 2
    endloop
  endfacet
  facet normal 0 0 1
    outer loop
      vertex 58.96 13.24 2
      vertex 56.96 11.24 2
      vertex 58.96 -13.24 2
    endloop
  endfacet
  facet normal 0 0 1
    outer loop
      vertex 58.96 13.24 2
      vertex 34.48 11.24 2
      vertex 56.96 11.24 2
    endloop
  endfacet
  facet normal 0 0 1
    outer loop
      vertex 34.48 11.24 2
      vertex 32.48 13.24 2
      vertex 34.48 -11.24 2
    endloop
  endfacet
  facet normal -0 0 1
    outer loop
      vertex 32.48 13.24 2
      vertex 34.48 11.24 2
      vertex 58.96 13.24 2
    endloop
  endfacet
  facet normal -0 0 1
    outer loop
      vertex 56.96 -11.24 2
      vertex 58.96 -13.24 2
      vertex 56.96 11.24 2
    endloop
  endfacet
  facet normal -0 0 1
    outer loop
      vertex 34.48 -11.24 2
      vertex 58.96 -13.24 2
      vertex 56.96 -11.24 2
    endloop
  endfacet
  facet normal 0 0 1
    outer loop
      vertex 34.48 -11.24 2
      vertex 32.48 -13.24 2
      vertex 58.96 -13.24 2
    endloop
  endfacet
  facet normal 0 0 1
    outer loop
      vertex 32.48 -13.24 2
      vertex 34.48 -11.24 2
      vertex 32.48 13.24 2
    endloop
  endfacet
  facet normal 1 -0 0
    outer loop
      vertex 58.96 -13.24 2
      vertex 58.96 13.24 1
      vertex 58.96 13.24 2
    endloop
  endfacet
  facet normal 1 0 0
    outer loop
      vertex 58.96 13.24 1
      vertex 58.96 -13.24 2
      vertex 58.96 -13.24 1
    endloop
  endfacet
  facet normal 0 1 -0
    outer loop
      vertex 58.96 13.24 1
      vertex 32.48 13.24 2
      vertex 58.96 13.24 2
    endloop
  endfacet
  facet normal 0 1 0
    outer loop
      vertex 32.48 13.24 2
      vertex 58.96 13.24 1
      vertex 32.48 13.24 1
    endloop
  endfacet
  facet normal 0 -1 0
    outer loop
      vertex 32.48 -13.24 1
      vertex 58.96 -13.24 2
      vertex 32.48 -13.24 2
    endloop
  endfacet
  facet normal 0 -1 -0
    outer loop
      vertex 58.96 -13.24 2
      vertex 32.48 -13.24 1
      vertex 58.96 -13.24 1
    endloop
  endfacet
  facet normal 1 -0 0
    outer loop
      vertex 34.48 -11.24 2
      vertex 34.48 11.24 1.001
      vertex 34.48 11.24 2
    endloop
  endfacet
  facet normal 1 0 0
    outer loop
      vertex 34.48 11.24 1.001
      vertex 34.48 -11.24 2
      vertex 34.48 -11.24 1.001
    endloop
  endfacet
  facet normal -1 0 0
    outer loop
      vertex 56.96 -11.24 1.001
      vertex 56.96 11.24 2
      vertex 56.96 11.24 1.001
    endloop
  endfacet
  facet normal -1 -0 0
    outer loop
      vertex 56.96 11.24 2
      vertex 56.96 -11.24 1.001
      vertex 56.96 -11.24 2
    endloop
  endfacet
  facet normal 0 -1 0
    outer loop
      vertex 34.48 11.24 1.001
      vertex 56.96 11.24 2
      vertex 34.48 11.24 2
    endloop
  endfacet
  facet normal 0 -1 -0
    outer loop
      vertex 56.96 11.24 2
      vertex 34.48 11.24 1.001
      vertex 56.96 11.24 1.001
    endloop
  endfacet
  facet normal 0 0 1
    outer loop
      vertex 49.8065 1.59326 1.001
      vertex 41.6335 1.59326 1.001
      vertex 49.8065 -1.59326 1.001
    endloop
  endfacet
  facet normal 0 0 1
    outer loop
      vertex 49.8065 -1.59326 1.001
      vertex 41.6981 -1.79209 1.001
      vertex 41.72 -2 1.001
    endloop
  endfacet
  facet normal 0 0 1
    outer loop
      vertex 41.6335 -1.59326 1.001
      vertex 49.8065 -1.59326 1.001
      vertex 41.6335 1.59326 1.001
    endloop
  endfacet
  facet normal 0 0 1
    outer loop
      vertex 49.8065 -1.59326 1.001
      vertex 41.6335 -1.59326 1.001
      vertex 41.6981 -1.79209 1.001
    endloop
  endfacet
  facet normal -0 0 1
    outer loop
      vertex 41.529 1.41221 1.001
      vertex 41.6335 -1.59326 1.001
      vertex 41.6335 1.59326 1.001
    endloop
  endfacet
  facet normal 0 0 1
    outer loop
      vertex 41.529 1.41221 1.001
      vertex 41.529 -1.41221 1.001
      vertex 41.6335 -1.59326 1.001
    endloop
  endfacet
  facet normal -0 0 1
    outer loop
      vertex 41.3891 1.25686 1.001
      vertex 41.529 -1.41221 1.001
      vertex 41.529 1.41221 1.001
    endloop
  endfacet
  facet normal 0 0 1
    outer loop
      vertex 41.3891 1.25686 1.001
      vertex 41.3891 -1.25686 1.001
      vertex 41.529 -1.41221 1.001
    endloop
  endfacet
  facet normal -0 0 1
    outer loop
      vertex 41.22 1.13397 1.001
      vertex 41.3891 -1.25686 1.001
      vertex 41.3891 1.25686 1.001
    endloop
  endfacet
  facet normal 0 0 1
    outer loop
      vertex 41.22 1.13397 1.001
      vertex 41.22 -1.13397 1.001
      vertex 41.3891 -1.25686 1.001
    endloop
  endfacet
  facet normal -0 0 1
    outer loop
      vertex 41.029 1.04894 1.001
      vertex 41.22 -1.13397 1.001
      vertex 41.22 1.13397 1.001
    endloop
  endfacet
  facet normal 0 0 1
    outer loop
      vertex 41.029 1.04894 1.001
      vertex 41.029 -1.04894 1.001
      vertex 41.22 -1.13397 1.001
    endloop
  endfacet
  facet normal -0 0 1
    outer loop
      vertex 40.8245 1.00548 1.001
      vertex 41.029 -1.04894 1.001
      vertex 41.029 1.04894 1.001
    endloop
  endfacet
  facet normal 0 0 1
    outer loop
      vertex 40.8245 1.00548 1.001
      vertex 40.8245 -1.00548 1.001
      vertex 41.029 -1.04894 1.001
    endloop
  endfacet
  facet normal -0 0 1
    outer loop
      vertex 40.6155 1.00548 1.001
      vertex 40.8245 -1.00548 1.001
      vertex 40.8245 1.00548 1.001
    endloop
  endfacet
  facet normal 0 0 1
    outer loop
      vertex 40.6155 1.00548 1.001
      vertex 40.6155 -1.00548 1.001
      vertex 40.8245 -1.00548 1.001
    endloop
  endfacet
  facet normal 0 0 1
    outer loop
      vertex 40.411 1.04894 1.001
      vertex 40.6155 -1.00548 1.001
      vertex 40.6155 1.00548 1.001
    endloop
  endfacet
  facet normal 0 0 1
    outer loop
      vertex 40.411 1.04894 1.001
      vertex 40.411 -1.04894 1.001
      vertex 40.6155 -1.00548 1.001
    endloop
  endfacet
  facet normal 0 0 1
    outer loop
      vertex 40.22 1.13397 1.001
      vertex 40.411 -1.04894 1.001
      vertex 40.411 1.04894 1.001
    endloop
  endfacet
  facet normal 0 0 1
    outer loop
      vertex 40.22 1.13397 1.001
      vertex 40.22 -1.13397 1.001
      vertex 40.411 -1.04894 1.001
    endloop
  endfacet
  facet normal 0 0 1
    outer loop
      vertex 40.0509 1.25686 1.001
      vertex 40.22 -1.13397 1.001
      vertex 40.22 1.13397 1.001
    endloop
  endfacet
  facet normal 0 0 1
    outer loop
      vertex 40.0509 1.25686 1.001
      vertex 40.0509 -1.25686 1.001
      vertex 40.22 -1.13397 1.001
    endloop
  endfacet
  facet normal 0 0 1
    outer loop
      vertex 39.911 1.41221 1.001
      vertex 40.0509 -1.25686 1.001
      vertex 40.0509 1.25686 1.001
    endloop
  endfacet
  facet normal 0 0 1
    outer loop
      vertex 39.911 1.41221 1.001
      vertex 39.911 -1.41221 1.001
      vertex 40.0509 -1.25686 1.001
    endloop
  endfacet
  facet normal 0 0 1
    outer loop
      vertex 39.8065 1.59326 1.001
      vertex 39.911 -1.41221 1.001
      vertex 39.911 1.41221 1.001
    endloop
  endfacet
  facet normal 0 0 1
    outer loop
      vertex 39.8065 1.59326 1.001
      vertex 39.8065 -1.59326 1.001
      vertex 39.911 -1.41221 1.001
    endloop
  endfacet
  facet normal 0 0 1
    outer loop
      vertex 39.7419 1.79209 1.001
      vertex 39.8065 -1.59326 1.001
      vertex 39.8065 1.59326 1.001
    endloop
  endfacet
  facet normal 0 0 1
    outer loop
      vertex 39.7419 1.79209 1.001
      vertex 39.7419 -1.79209 1.001
      vertex 39.8065 -1.59326 1.001
    endloop
  endfacet
  facet normal 0 0 1
    outer loop
      vertex 34.48 11.24 1.001
      vertex 39.7419 1.79209 1.001
      vertex 39.72 2 1.001
    endloop
  endfacet
  facet normal 0 0 1
    outer loop
      vertex 39.7419 1.79209 1.001
      vertex 34.48 11.24 1.001
      vertex 39.7419 -1.79209 1.001
    endloop
  endfacet
  facet normal -0 0 1
    outer loop
      vertex 51.6981 -1.79209 1.001
      vertex 56.96 -11.24 1.001
      vertex 51.6981 1.79209 1.001
    endloop
  endfacet
  facet normal 0 0 1
    outer loop
      vertex 56.96 -11.24 1.001
      vertex 51.6981 -1.79209 1.001
      vertex 51.72 -2 1.001
    endloop
  endfacet
  facet normal -0 0 1
    outer loop
      vertex 51.6335 1.59326 1.001
      vertex 51.6981 -1.79209 1.001
      vertex 51.6981 1.79209 1.001
    endloop
  endfacet
  facet normal 0 0 1
    outer loop
      vertex 51.6335 1.59326 1.001
      vertex 51.6335 -1.59326 1.001
      vertex 51.6981 -1.79209 1.001
    endloop
  endfacet
  facet normal -0 0 1
    outer loop
      vertex 51.529 1.41221 1.001
      vertex 51.6335 -1.59326 1.001
      vertex 51.6335 1.59326 1.001
    endloop
  endfacet
  facet normal 0 0 1
    outer loop
      vertex 51.529 1.41221 1.001
      vertex 51.529 -1.41221 1.001
      vertex 51.6335 -1.59326 1.001
    endloop
  endfacet
  facet normal -0 0 1
    outer loop
      vertex 51.3891 1.25686 1.001
      vertex 51.529 -1.41221 1.001
      vertex 51.529 1.41221 1.001
    endloop
  endfacet
  facet normal 0 0 1
    outer loop
      vertex 51.3891 1.25686 1.001
      vertex 51.3891 -1.25686 1.001
      vertex 51.529 -1.41221 1.001
    endloop
  endfacet
  facet normal -0 0 1
    outer loop
      vertex 51.22 1.13397 1.001
      vertex 51.3891 -1.25686 1.001
      vertex 51.3891 1.25686 1.001
    endloop
  endfacet
  facet normal 0 0 1
    outer loop
      vertex 51.22 1.13397 1.001
      vertex 51.22 -1.13397 1.001
      vertex 51.3891 -1.25686 1.001
    endloop
  endfacet
  facet normal -0 0 1
    outer loop
      vertex 51.029 1.04894 1.001
      vertex 51.22 -1.13397 1.001
      vertex 51.22 1.13397 1.001
    endloop
  endfacet
  facet normal 0 0 1
    outer loop
      vertex 51.029 1.04894 1.001
      vertex 51.029 -1.04894 1.001
      vertex 51.22 -1.13397 1.001
    endloop
  endfacet
  facet normal -0 0 1
    outer loop
      vertex 50.8245 1.00548 1.001
      vertex 51.029 -1.04894 1.001
      vertex 51.029 1.04894 1.001
    endloop
  endfacet
  facet normal 0 0 1
    outer loop
      vertex 50.8245 1.00548 1.001
      vertex 50.8245 -1.00548 1.001
      vertex 51.029 -1.04894 1.001
    endloop
  endfacet
  facet normal -0 0 1
    outer loop
      vertex 50.6155 1.00548 1.001
      vertex 50.8245 -1.00548 1.001
      vertex 50.8245 1.00548 1.001
    endloop
  endfacet
  facet normal 0 0 1
    outer loop
      vertex 50.6155 1.00548 1.001
      vertex 50.6155 -1.00548 1.001
      vertex 50.8245 -1.00548 1.001
    endloop
  endfacet
  facet normal 0 0 1
    outer loop
      vertex 50.411 1.04894 1.001
      vertex 50.6155 -1.00548 1.001
      vertex 50.6155 1.00548 1.001
    endloop
  endfacet
  facet normal 0 0 1
    outer loop
      vertex 50.411 1.04894 1.001
      vertex 50.411 -1.04894 1.001
      vertex 50.6155 -1.00548 1.001
    endloop
  endfacet
  facet normal 0 0 1
    outer loop
      vertex 50.22 1.13397 1.001
      vertex 50.411 -1.04894 1.001
      vertex 50.411 1.04894 1.001
    endloop
  endfacet
  facet normal 0 0 1
    outer loop
      vertex 50.22 1.13397 1.001
      vertex 50.22 -1.13397 1.001
      vertex 50.411 -1.04894 1.001
    endloop
  endfacet
  facet normal 0 0 1
    outer loop
      vertex 50.0509 1.25686 1.001
      vertex 50.22 -1.13397 1.001
      vertex 50.22 1.13397 1.001
    endloop
  endfacet
  facet normal 0 0 1
    outer loop
      vertex 50.0509 1.25686 1.001
      vertex 50.0509 -1.25686 1.001
      vertex 50.22 -1.13397 1.001
    endloop
  endfacet
  facet normal 0 0 1
    outer loop
      vertex 49.911 1.41221 1.001
      vertex 50.0509 -1.25686 1.001
      vertex 50.0509 1.25686 1.001
    endloop
  endfacet
  facet normal 0 0 1
    outer loop
      vertex 49.911 1.41221 1.001
      vertex 49.911 -1.41221 1.001
      vertex 50.0509 -1.25686 1.001
    endloop
  endfacet
  facet normal 0 0 1
    outer loop
      vertex 49.8065 1.59326 1.001
      vertex 49.911 -1.41221 1.001
      vertex 49.911 1.41221 1.001
    endloop
  endfacet
  facet normal 0 0 1
    outer loop
      vertex 49.8065 1.59326 1.001
      vertex 49.8065 -1.59326 1.001
      vertex 49.911 -1.41221 1.001
    endloop
  endfacet
  facet normal 0 0 1
    outer loop
      vertex 41.6981 1.79209 1.001
      vertex 49.7419 1.79209 1.001
      vertex 41.72 2 1.001
    endloop
  endfacet
  facet normal 0 0 1
    outer loop
      vertex 49.7419 1.79209 1.001
      vertex 41.6981 1.79209 1.001
      vertex 49.8065 1.59326 1.001
    endloop
  endfacet
  facet normal -0 0 1
    outer loop
      vertex 41.72 2 1.001
      vertex 49.7419 1.79209 1.001
      vertex 49.72 2 1.001
    endloop
  endfacet
  facet normal 0 0 1
    outer loop
      vertex 41.6335 1.59326 1.001
      vertex 49.8065 1.59326 1.001
      vertex 41.6981 1.79209 1.001
    endloop
  endfacet
  facet normal 0 0 1
    outer loop
      vertex 51.6981 1.79209 1.001
      vertex 56.96 11.24 1.001
      vertex 51.72 2 1.001
    endloop
  endfacet
  facet normal 0 0 1
    outer loop
      vertex 56.96 11.24 1.001
      vertex 51.6981 2.20791 1.001
      vertex 51.72 2 1.001
    endloop
  endfacet
  facet normal 0 0 1
    outer loop
      vertex 56.96 11.24 1.001
      vertex 51.6335 2.40674 1.001
      vertex 51.6981 2.20791 1.001
    endloop
  endfacet
  facet normal 0 0 1
    outer loop
      vertex 56.96 11.24 1.001
      vertex 51.529 2.58778 1.001
      vertex 51.6335 2.40674 1.001
    endloop
  endfacet
  facet normal 0 0 1
    outer loop
      vertex 56.96 11.24 1.001
      vertex 51.3891 2.74314 1.001
      vertex 51.529 2.58778 1.001
    endloop
  endfacet
  facet normal 0 0 1
    outer loop
      vertex 56.96 11.24 1.001
      vertex 51.22 2.86602 1.001
      vertex 51.3891 2.74314 1.001
    endloop
  endfacet
  facet normal 0 0 1
    outer loop
      vertex 56.96 11.24 1.001
      vertex 51.029 2.95106 1.001
      vertex 51.22 2.86602 1.001
    endloop
  endfacet
  facet normal 0 0 1
    outer loop
      vertex 56.96 11.24 1.001
      vertex 50.8245 2.99452 1.001
      vertex 51.029 2.95106 1.001
    endloop
  endfacet
  facet normal 0 0 1
    outer loop
      vertex 56.96 11.24 1.001
      vertex 50.6155 2.99452 1.001
      vertex 50.8245 2.99452 1.001
    endloop
  endfacet
  facet normal 0 0 1
    outer loop
      vertex 56.96 11.24 1.001
      vertex 50.411 2.95106 1.001
      vertex 50.6155 2.99452 1.001
    endloop
  endfacet
  facet normal 0 0 1
    outer loop
      vertex 56.96 11.24 1.001
      vertex 50.22 2.86602 1.001
      vertex 50.411 2.95106 1.001
    endloop
  endfacet
  facet normal 0 0 1
    outer loop
      vertex 41.22 2.86602 1.001
      vertex 50.22 2.86602 1.001
      vertex 56.96 11.24 1.001
    endloop
  endfacet
  facet normal 0 0 1
    outer loop
      vertex 50.22 2.86602 1.001
      vertex 41.22 2.86602 1.001
      vertex 50.0509 2.74314 1.001
    endloop
  endfacet
  facet normal 0 0 1
    outer loop
      vertex 49.8065 -1.59326 1.001
      vertex 41.72 -2 1.001
      vertex 49.7419 -1.79209 1.001
    endloop
  endfacet
  facet normal 0 0 1
    outer loop
      vertex 49.7419 2.20791 1.001
      vertex 41.72 2 1.001
      vertex 49.72 2 1.001
    endloop
  endfacet
  facet normal 0 0 1
    outer loop
      vertex 41.6981 2.20791 1.001
      vertex 49.7419 2.20791 1.001
      vertex 49.8065 2.40674 1.001
    endloop
  endfacet
  facet normal 0 0 1
    outer loop
      vertex 41.6335 2.40674 1.001
      vertex 49.8065 2.40674 1.001
      vertex 49.911 2.58778 1.001
    endloop
  endfacet
  facet normal 0 -0 1
    outer loop
      vertex 41.3891 2.74314 1.001
      vertex 50.0509 2.74314 1.001
      vertex 41.22 2.86602 1.001
    endloop
  endfacet
  facet normal 0 0 1
    outer loop
      vertex 49.7419 2.20791 1.001
      vertex 41.6981 2.20791 1.001
      vertex 41.72 2 1.001
    endloop
  endfacet
  facet normal 0 0 1
    outer loop
      vertex 49.8065 2.40674 1.001
      vertex 41.6335 2.40674 1.001
      vertex 41.6981 2.20791 1.001
    endloop
  endfacet
  facet normal 0 0 1
    outer loop
      vertex 49.911 2.58778 1.001
      vertex 41.529 2.58778 1.001
      vertex 41.6335 2.40674 1.001
    endloop
  endfacet
  facet normal 0 0 1
    outer loop
      vertex 49.911 2.58778 1.001
      vertex 41.3891 2.74314 1.001
      vertex 41.529 2.58778 1.001
    endloop
  endfacet
  facet normal 0 0 1
    outer loop
      vertex 50.0509 2.74314 1.001
      vertex 41.3891 2.74314 1.001
      vertex 49.911 2.58778 1.001
    endloop
  endfacet
  facet normal 0 0 1
    outer loop
      vertex 56.96 11.24 1.001
      vertex 41.029 2.95106 1.001
      vertex 41.22 2.86602 1.001
    endloop
  endfacet
  facet normal -0 0 1
    outer loop
      vertex 34.48 11.24 1.001
      vertex 41.029 2.95106 1.001
      vertex 56.96 11.24 1.001
    endloop
  endfacet
  facet normal 0 0 1
    outer loop
      vertex 41.029 2.95106 1.001
      vertex 34.48 11.24 1.001
      vertex 40.8245 2.99452 1.001
    endloop
  endfacet
  facet normal 0 0 1
    outer loop
      vertex 40.8245 2.99452 1.001
      vertex 34.48 11.24 1.001
      vertex 40.6155 2.99452 1.001
    endloop
  endfacet
  facet normal 0 0 1
    outer loop
      vertex 40.6155 2.99452 1.001
      vertex 34.48 11.24 1.001
      vertex 40.411 2.95106 1.001
    endloop
  endfacet
  facet normal 0 0 1
    outer loop
      vertex 34.48 -11.24 1.001
      vertex 39.7419 -1.79209 1.001
      vertex 34.48 11.24 1.001
    endloop
  endfacet
  facet normal 0 0 1
    outer loop
      vertex 39.7419 2.20791 1.001
      vertex 34.48 11.24 1.001
      vertex 39.72 2 1.001
    endloop
  endfacet
  facet normal 0 0 1
    outer loop
      vertex 39.8065 2.40674 1.001
      vertex 34.48 11.24 1.001
      vertex 39.7419 2.20791 1.001
    endloop
  endfacet
  facet normal 0 0 1
    outer loop
      vertex 39.911 2.58778 1.001
      vertex 34.48 11.24 1.001
      vertex 39.8065 2.40674 1.001
    endloop
  endfacet
  facet normal 0 0 1
    outer loop
      vertex 40.0509 2.74314 1.001
      vertex 34.48 11.24 1.001
      vertex 39.911 2.58778 1.001
    endloop
  endfacet
  facet normal 0 0 1
    outer loop
      vertex 40.22 2.86602 1.001
      vertex 34.48 11.24 1.001
      vertex 40.0509 2.74314 1.001
    endloop
  endfacet
  facet normal 0 0 1
    outer loop
      vertex 40.411 2.95106 1.001
      vertex 34.48 11.24 1.001
      vertex 40.22 2.86602 1.001
    endloop
  endfacet
  facet normal 0 0 1
    outer loop
      vertex 56.96 11.24 1.001
      vertex 51.6981 1.79209 1.001
      vertex 56.96 -11.24 1.001
    endloop
  endfacet
  facet normal -0 0 1
    outer loop
      vertex 51.6981 -2.20791 1.001
      vertex 56.96 -11.24 1.001
      vertex 51.72 -2 1.001
    endloop
  endfacet
  facet normal -0 0 1
    outer loop
      vertex 51.6335 -2.40674 1.001
      vertex 56.96 -11.24 1.001
      vertex 51.6981 -2.20791 1.001
    endloop
  endfacet
  facet normal -0 0 1
    outer loop
      vertex 51.529 -2.58778 1.001
      vertex 56.96 -11.24 1.001
      vertex 51.6335 -2.40674 1.001
    endloop
  endfacet
  facet normal -0 0 1
    outer loop
      vertex 51.3891 -2.74314 1.001
      vertex 56.96 -11.24 1.001
      vertex 51.529 -2.58778 1.001
    endloop
  endfacet
  facet normal -0 0 1
    outer loop
      vertex 51.22 -2.86602 1.001
      vertex 56.96 -11.24 1.001
      vertex 51.3891 -2.74314 1.001
    endloop
  endfacet
  facet normal -0 0 1
    outer loop
      vertex 51.029 -2.95106 1.001
      vertex 56.96 -11.24 1.001
      vertex 51.22 -2.86602 1.001
    endloop
  endfacet
  facet normal -0 0 1
    outer loop
      vertex 50.8245 -2.99452 1.001
      vertex 56.96 -11.24 1.001
      vertex 51.029 -2.95106 1.001
    endloop
  endfacet
  facet normal -0 0 1
    outer loop
      vertex 50.6155 -2.99452 1.001
      vertex 56.96 -11.24 1.001
      vertex 50.8245 -2.99452 1.001
    endloop
  endfacet
  facet normal 0 0 1
    outer loop
      vertex 50.411 -2.95106 1.001
      vertex 56.96 -11.24 1.001
      vertex 50.6155 -2.99452 1.001
    endloop
  endfacet
  facet normal 0 0 1
    outer loop
      vertex 50.22 -2.86602 1.001
      vertex 56.96 -11.24 1.001
      vertex 50.411 -2.95106 1.001
    endloop
  endfacet
  facet normal 0 0 1
    outer loop
      vertex 41.22 -2.86602 1.001
      vertex 50.22 -2.86602 1.001
      vertex 50.0509 -2.74314 1.001
    endloop
  endfacet
  facet normal 0 0 1
    outer loop
      vertex 41.3891 -2.74314 1.001
      vertex 50.0509 -2.74314 1.001
      vertex 49.911 -2.58778 1.001
    endloop
  endfacet
  facet normal 0 0 1
    outer loop
      vertex 49.7419 -1.79209 1.001
      vertex 41.72 -2 1.001
      vertex 49.72 -2 1.001
    endloop
  endfacet
  facet normal 0 0 1
    outer loop
      vertex 49.72 -2 1.001
      vertex 41.72 -2 1.001
      vertex 49.7419 -2.20791 1.001
    endloop
  endfacet
  facet normal 0 0 1
    outer loop
      vertex 41.6981 -2.20791 1.001
      vertex 49.7419 -2.20791 1.001
      vertex 41.72 -2 1.001
    endloop
  endfacet
  facet normal 0 0 1
    outer loop
      vertex 49.7419 -2.20791 1.001
      vertex 41.6981 -2.20791 1.001
      vertex 49.8065 -2.40674 1.001
    endloop
  endfacet
  facet normal 0 0 1
    outer loop
      vertex 41.6335 -2.40674 1.001
      vertex 49.8065 -2.40674 1.001
      vertex 41.6981 -2.20791 1.001
    endloop
  endfacet
  facet normal 0 0 1
    outer loop
      vertex 49.8065 -2.40674 1.001
      vertex 41.6335 -2.40674 1.001
      vertex 49.911 -2.58778 1.001
    endloop
  endfacet
  facet normal 0 0 1
    outer loop
      vertex 41.529 -2.58778 1.001
      vertex 49.911 -2.58778 1.001
      vertex 41.6335 -2.40674 1.001
    endloop
  endfacet
  facet normal 0 0 1
    outer loop
      vertex 41.3891 -2.74314 1.001
      vertex 49.911 -2.58778 1.001
      vertex 41.529 -2.58778 1.001
    endloop
  endfacet
  facet normal 0 0 1
    outer loop
      vertex 50.0509 -2.74314 1.001
      vertex 41.3891 -2.74314 1.001
      vertex 41.22 -2.86602 1.001
    endloop
  endfacet
  facet normal 0 0 1
    outer loop
      vertex 50.22 -2.86602 1.001
      vertex 41.22 -2.86602 1.001
      vertex 56.96 -11.24 1.001
    endloop
  endfacet
  facet normal -0 0 1
    outer loop
      vertex 41.029 -2.95106 1.001
      vertex 56.96 -11.24 1.001
      vertex 41.22 -2.86602 1.001
    endloop
  endfacet
  facet normal 0 0 1
    outer loop
      vertex 34.48 -11.24 1.001
      vertex 41.029 -2.95106 1.001
      vertex 40.8245 -2.99452 1.001
    endloop
  endfacet
  facet normal 0 0 1
    outer loop
      vertex 34.48 -11.24 1.001
      vertex 40.8245 -2.99452 1.001
      vertex 40.6155 -2.99452 1.001
    endloop
  endfacet
  facet normal 0 0 1
    outer loop
      vertex 34.48 -11.24 1.001
      vertex 40.6155 -2.99452 1.001
      vertex 40.411 -2.95106 1.001
    endloop
  endfacet
  facet normal 0 0 1
    outer loop
      vertex 34.48 -11.24 1.001
      vertex 40.411 -2.95106 1.001
      vertex 40.22 -2.86602 1.001
    endloop
  endfacet
  facet normal 0 0 1
    outer loop
      vertex 39.7419 -1.79209 1.001
      vertex 34.48 -11.24 1.001
      vertex 39.72 -2 1.001
    endloop
  endfacet
  facet normal 0 0 1
    outer loop
      vertex 39.72 -2 1.001
      vertex 34.48 -11.24 1.001
      vertex 39.7419 -2.20791 1.001
    endloop
  endfacet
  facet normal 0 0 1
    outer loop
      vertex 41.029 -2.95106 1.001
      vertex 34.48 -11.24 1.001
      vertex 56.96 -11.24 1.001
    endloop
  endfacet
  facet normal 0 0 1
    outer loop
      vertex 40.0509 -2.74314 1.001
      vertex 34.48 -11.24 1.001
      vertex 40.22 -2.86602 1.001
    endloop
  endfacet
  facet normal 0 0 1
    outer loop
      vertex 39.911 -2.58778 1.001
      vertex 34.48 -11.24 1.001
      vertex 40.0509 -2.74314 1.001
    endloop
  endfacet
  facet normal 0 0 1
    outer loop
      vertex 39.8065 -2.40674 1.001
      vertex 34.48 -11.24 1.001
      vertex 39.911 -2.58778 1.001
    endloop
  endfacet
  facet normal 0 0 1
    outer loop
      vertex 39.7419 -2.20791 1.001
      vertex 34.48 -11.24 1.001
      vertex 39.8065 -2.40674 1.001
    endloop
  endfacet
  facet normal 0 1 -0
    outer loop
      vertex 56.96 -11.24 1.001
      vertex 34.48 -11.24 2
      vertex 56.96 -11.24 2
    endloop
  endfacet
  facet normal 0 1 0
    outer loop
      vertex 34.48 -11.24 2
      vertex 56.96 -11.24 1.001
      vertex 34.48 -11.24 1.001
    endloop
  endfacet
  facet normal -0.994521 -0.104538 0
    outer loop
      vertex 51.72 2 -1
      vertex 51.6981 2.20791 1.001
      vertex 51.6981 2.20791 -1
    endloop
  endfacet
  facet normal -0.994521 -0.104538 0
    outer loop
      vertex 51.6981 2.20791 1.001
      vertex 51.72 2 -1
      vertex 51.72 2 1.001
    endloop
  endfacet
  facet normal 0.20791 -0.978148 0
    outer loop
      vertex 50.411 2.95106 -1
      vertex 50.6155 2.99452 1.001
      vertex 50.411 2.95106 1.001
    endloop
  endfacet
  facet normal 0.20791 -0.978148 0
    outer loop
      vertex 50.6155 2.99452 1.001
      vertex 50.411 2.95106 -1
      vertex 50.6155 2.99452 -1
    endloop
  endfacet
  facet normal -0.20791 0.978148 0
    outer loop
      vertex 51.029 1.04894 -1
      vertex 50.8245 1.00548 1.001
      vertex 51.029 1.04894 1.001
    endloop
  endfacet
  facet normal -0.20791 0.978148 0
    outer loop
      vertex 50.8245 1.00548 1.001
      vertex 51.029 1.04894 -1
      vertex 50.8245 1.00548 -1
    endloop
  endfacet
  facet normal -0.587791 -0.809013 0
    outer loop
      vertex 51.22 2.86602 -1
      vertex 51.3891 2.74314 1.001
      vertex 51.22 2.86602 1.001
    endloop
  endfacet
  facet normal -0.587791 -0.809013 -0
    outer loop
      vertex 51.3891 2.74314 1.001
      vertex 51.22 2.86602 -1
      vertex 51.3891 2.74314 -1
    endloop
  endfacet
  facet normal 0.866021 -0.500007 0
    outer loop
      vertex 49.8065 2.40674 1.001
      vertex 49.911 2.58778 -1
      vertex 49.911 2.58778 1.001
    endloop
  endfacet
  facet normal 0.866021 -0.500007 0
    outer loop
      vertex 49.911 2.58778 -1
      vertex 49.8065 2.40674 1.001
      vertex 49.8065 2.40674 -1
    endloop
  endfacet
  facet normal 0.951057 -0.309016 0
    outer loop
      vertex 49.7419 2.20791 1.001
      vertex 49.8065 2.40674 -1
      vertex 49.8065 2.40674 1.001
    endloop
  endfacet
  facet normal 0.951057 -0.309016 0
    outer loop
      vertex 49.8065 2.40674 -1
      vertex 49.7419 2.20791 1.001
      vertex 49.7419 2.20791 -1
    endloop
  endfacet
  facet normal 0.587783 -0.809019 0
    outer loop
      vertex 50.0509 2.74314 -1
      vertex 50.22 2.86602 1.001
      vertex 50.0509 2.74314 1.001
    endloop
  endfacet
  facet normal 0.587783 -0.809019 0
    outer loop
      vertex 50.22 2.86602 1.001
      vertex 50.0509 2.74314 -1
      vertex 50.22 2.86602 -1
    endloop
  endfacet
  facet normal -0.951057 0.309016 0
    outer loop
      vertex 51.6335 1.59326 -1
      vertex 51.6981 1.79209 1.001
      vertex 51.6981 1.79209 -1
    endloop
  endfacet
  facet normal -0.951057 0.309016 0
    outer loop
      vertex 51.6981 1.79209 1.001
      vertex 51.6335 1.59326 -1
      vertex 51.6335 1.59326 1.001
    endloop
  endfacet
  facet normal -0.866021 -0.500007 0
    outer loop
      vertex 51.6335 2.40674 -1
      vertex 51.529 2.58778 1.001
      vertex 51.529 2.58778 -1
    endloop
  endfacet
  facet normal -0.866021 -0.500007 0
    outer loop
      vertex 51.529 2.58778 1.001
      vertex 51.6335 2.40674 -1
      vertex 51.6335 2.40674 1.001
    endloop
  endfacet
  facet normal -0.951057 -0.309016 0
    outer loop
      vertex 51.6981 2.20791 -1
      vertex 51.6335 2.40674 1.001
      vertex 51.6335 2.40674 -1
    endloop
  endfacet
  facet normal -0.951057 -0.309016 0
    outer loop
      vertex 51.6335 2.40674 1.001
      vertex 51.6981 2.20791 -1
      vertex 51.6981 2.20791 1.001
    endloop
  endfacet
  facet normal -0.743148 -0.669128 0
    outer loop
      vertex 51.529 2.58778 -1
      vertex 51.3891 2.74314 1.001
      vertex 51.3891 2.74314 -1
    endloop
  endfacet
  facet normal -0.743148 -0.669128 0
    outer loop
      vertex 51.3891 2.74314 1.001
      vertex 51.529 2.58778 -1
      vertex 51.529 2.58778 1.001
    endloop
  endfacet
  facet normal -0.20791 -0.978148 0
    outer loop
      vertex 50.8245 2.99452 -1
      vertex 51.029 2.95106 1.001
      vertex 50.8245 2.99452 1.001
    endloop
  endfacet
  facet normal -0.20791 -0.978148 -0
    outer loop
      vertex 51.029 2.95106 1.001
      vertex 50.8245 2.99452 -1
      vertex 51.029 2.95106 -1
    endloop
  endfacet
  facet normal 0 -1 0
    outer loop
      vertex 50.6155 2.99452 -1
      vertex 50.8245 2.99452 1.001
      vertex 50.6155 2.99452 1.001
    endloop
  endfacet
  facet normal 0 -1 -0
    outer loop
      vertex 50.8245 2.99452 1.001
      vertex 50.6155 2.99452 -1
      vertex 50.8245 2.99452 -1
    endloop
  endfacet
  facet normal -0.406732 -0.913548 0
    outer loop
      vertex 51.029 2.95106 -1
      vertex 51.22 2.86602 1.001
      vertex 51.029 2.95106 1.001
    endloop
  endfacet
  facet normal -0.406732 -0.913548 -0
    outer loop
      vertex 51.22 2.86602 1.001
      vertex 51.029 2.95106 -1
      vertex 51.22 2.86602 -1
    endloop
  endfacet
  facet normal 0.994523 -0.10452 0
    outer loop
      vertex 49.72 2 1.001
      vertex 49.7419 2.20791 -1
      vertex 49.7419 2.20791 1.001
    endloop
  endfacet
  facet normal 0.994523 -0.10452 0
    outer loop
      vertex 49.7419 2.20791 -1
      vertex 49.72 2 1.001
      vertex 49.72 2 -1
    endloop
  endfacet
  facet normal 0.743148 -0.669128 0
    outer loop
      vertex 49.911 2.58778 1.001
      vertex 50.0509 2.74314 -1
      vertex 50.0509 2.74314 1.001
    endloop
  endfacet
  facet normal 0.743148 -0.669128 0
    outer loop
      vertex 50.0509 2.74314 -1
      vertex 49.911 2.58778 1.001
      vertex 49.911 2.58778 -1
    endloop
  endfacet
  facet normal 0.406739 -0.913545 0
    outer loop
      vertex 50.22 2.86602 -1
      vertex 50.411 2.95106 1.001
      vertex 50.22 2.86602 1.001
    endloop
  endfacet
  facet normal 0.406739 -0.913545 0
    outer loop
      vertex 50.411 2.95106 1.001
      vertex 50.22 2.86602 -1
      vertex 50.411 2.95106 -1
    endloop
  endfacet
  facet normal -0.994521 0.104538 0
    outer loop
      vertex 51.6981 1.79209 -1
      vertex 51.72 2 1.001
      vertex 51.72 2 -1
    endloop
  endfacet
  facet normal -0.994521 0.104538 0
    outer loop
      vertex 51.72 2 1.001
      vertex 51.6981 1.79209 -1
      vertex 51.6981 1.79209 1.001
    endloop
  endfacet
  facet normal 0.994523 0.10452 0
    outer loop
      vertex 49.7419 1.79209 1.001
      vertex 49.72 2 -1
      vertex 49.72 2 1.001
    endloop
  endfacet
  facet normal 0.994523 0.10452 0
    outer loop
      vertex 49.72 2 -1
      vertex 49.7419 1.79209 1.001
      vertex 49.7419 1.79209 -1
    endloop
  endfacet
  facet normal -0.743148 0.669128 0
    outer loop
      vertex 51.3891 1.25686 -1
      vertex 51.529 1.41221 1.001
      vertex 51.529 1.41221 -1
    endloop
  endfacet
  facet normal -0.743148 0.669128 0
    outer loop
      vertex 51.529 1.41221 1.001
      vertex 51.3891 1.25686 -1
      vertex 51.3891 1.25686 1.001
    endloop
  endfacet
  facet normal -0.866021 0.500007 0
    outer loop
      vertex 51.529 1.41221 -1
      vertex 51.6335 1.59326 1.001
      vertex 51.6335 1.59326 -1
    endloop
  endfacet
  facet normal -0.866021 0.500007 0
    outer loop
      vertex 51.6335 1.59326 1.001
      vertex 51.529 1.41221 -1
      vertex 51.529 1.41221 1.001
    endloop
  endfacet
  facet normal 0.743148 0.669128 0
    outer loop
      vertex 50.0509 1.25686 1.001
      vertex 49.911 1.41221 -1
      vertex 49.911 1.41221 1.001
    endloop
  endfacet
  facet normal 0.743148 0.669128 0
    outer loop
      vertex 49.911 1.41221 -1
      vertex 50.0509 1.25686 1.001
      vertex 50.0509 1.25686 -1
    endloop
  endfacet
  facet normal 0.587783 0.809019 -0
    outer loop
      vertex 50.22 1.13397 -1
      vertex 50.0509 1.25686 1.001
      vertex 50.22 1.13397 1.001
    endloop
  endfacet
  facet normal 0.587783 0.809019 0
    outer loop
      vertex 50.0509 1.25686 1.001
      vertex 50.22 1.13397 -1
      vertex 50.0509 1.25686 -1
    endloop
  endfacet
  facet normal 0.951057 0.309016 0
    outer loop
      vertex 49.8065 1.59326 1.001
      vertex 49.7419 1.79209 -1
      vertex 49.7419 1.79209 1.001
    endloop
  endfacet
  facet normal 0.951057 0.309016 0
    outer loop
      vertex 49.7419 1.79209 -1
      vertex 49.8065 1.59326 1.001
      vertex 49.8065 1.59326 -1
    endloop
  endfacet
  facet normal 0 1 -0
    outer loop
      vertex 50.8245 1.00548 -1
      vertex 50.6155 1.00548 1.001
      vertex 50.8245 1.00548 1.001
    endloop
  endfacet
  facet normal 0 1 0
    outer loop
      vertex 50.6155 1.00548 1.001
      vertex 50.8245 1.00548 -1
      vertex 50.6155 1.00548 -1
    endloop
  endfacet
  facet normal 0.866021 0.500007 0
    outer loop
      vertex 49.911 1.41221 1.001
      vertex 49.8065 1.59326 -1
      vertex 49.8065 1.59326 1.001
    endloop
  endfacet
  facet normal 0.866021 0.500007 0
    outer loop
      vertex 49.8065 1.59326 -1
      vertex 49.911 1.41221 1.001
      vertex 49.911 1.41221 -1
    endloop
  endfacet
  facet normal -0.587791 0.809013 0
    outer loop
      vertex 51.3891 1.25686 -1
      vertex 51.22 1.13397 1.001
      vertex 51.3891 1.25686 1.001
    endloop
  endfacet
  facet normal -0.587791 0.809013 0
    outer loop
      vertex 51.22 1.13397 1.001
      vertex 51.3891 1.25686 -1
      vertex 51.22 1.13397 -1
    endloop
  endfacet
  facet normal -0.406732 0.913548 0
    outer loop
      vertex 51.22 1.13397 -1
      vertex 51.029 1.04894 1.001
      vertex 51.22 1.13397 1.001
    endloop
  endfacet
  facet normal -0.406732 0.913548 0
    outer loop
      vertex 51.029 1.04894 1.001
      vertex 51.22 1.13397 -1
      vertex 51.029 1.04894 -1
    endloop
  endfacet
  facet normal 0.20791 0.978148 -0
    outer loop
      vertex 50.6155 1.00548 -1
      vertex 50.411 1.04894 1.001
      vertex 50.6155 1.00548 1.001
    endloop
  endfacet
  facet normal 0.20791 0.978148 0
    outer loop
      vertex 50.411 1.04894 1.001
      vertex 50.6155 1.00548 -1
      vertex 50.411 1.04894 -1
    endloop
  endfacet
  facet normal 0.406739 0.913545 -0
    outer loop
      vertex 50.411 1.04894 -1
      vertex 50.22 1.13397 1.001
      vertex 50.411 1.04894 1.001
    endloop
  endfacet
  facet normal 0.406739 0.913545 0
    outer loop
      vertex 50.22 1.13397 1.001
      vertex 50.411 1.04894 -1
      vertex 50.22 1.13397 -1
    endloop
  endfacet
  facet normal -0.994521 -0.104538 0
    outer loop
      vertex 51.72 -2 -1
      vertex 51.6981 -1.79209 1.001
      vertex 51.6981 -1.79209 -1
    endloop
  endfacet
  facet normal -0.994521 -0.104538 0
    outer loop
      vertex 51.6981 -1.79209 1.001
      vertex 51.72 -2 -1
      vertex 51.72 -2 1.001
    endloop
  endfacet
  facet normal 0.20791 -0.978148 0
    outer loop
      vertex 50.411 -1.04894 -1
      vertex 50.6155 -1.00548 1.001
      vertex 50.411 -1.04894 1.001
    endloop
  endfacet
  facet normal 0.20791 -0.978148 0
    outer loop
      vertex 50.6155 -1.00548 1.001
      vertex 50.411 -1.04894 -1
      vertex 50.6155 -1.00548 -1
    endloop
  endfacet
  facet normal -0.20791 0.978148 0
    outer loop
      vertex 51.029 -2.95106 -1
      vertex 50.8245 -2.99452 1.001
      vertex 51.029 -2.95106 1.001
    endloop
  endfacet
  facet normal -0.20791 0.978148 0
    outer loop
      vertex 50.8245 -2.99452 1.001
      vertex 51.029 -2.95106 -1
      vertex 50.8245 -2.99452 -1
    endloop
  endfacet
  facet normal -0.587791 -0.809013 0
    outer loop
      vertex 51.22 -1.13397 -1
      vertex 51.3891 -1.25686 1.001
      vertex 51.22 -1.13397 1.001
    endloop
  endfacet
  facet normal -0.587791 -0.809013 -0
    outer loop
      vertex 51.3891 -1.25686 1.001
      vertex 51.22 -1.13397 -1
      vertex 51.3891 -1.25686 -1
    endloop
  endfacet
  facet normal 0.866021 -0.500007 0
    outer loop
      vertex 49.8065 -1.59326 1.001
      vertex 49.911 -1.41221 -1
      vertex 49.911 -1.41221 1.001
    endloop
  endfacet
  facet normal 0.866021 -0.500007 0
    outer loop
      vertex 49.911 -1.41221 -1
      vertex 49.8065 -1.59326 1.001
      vertex 49.8065 -1.59326 -1
    endloop
  endfacet
  facet normal 0.951057 -0.309016 0
    outer loop
      vertex 49.7419 -1.79209 1.001
      vertex 49.8065 -1.59326 -1
      vertex 49.8065 -1.59326 1.001
    endloop
  endfacet
  facet normal 0.951057 -0.309016 0
    outer loop
      vertex 49.8065 -1.59326 -1
      vertex 49.7419 -1.79209 1.001
      vertex 49.7419 -1.79209 -1
    endloop
  endfacet
  facet normal 0.587783 -0.809019 0
    outer loop
      vertex 50.0509 -1.25686 -1
      vertex 50.22 -1.13397 1.001
      vertex 50.0509 -1.25686 1.001
    endloop
  endfacet
  facet normal 0.587783 -0.809019 0
    outer loop
      vertex 50.22 -1.13397 1.001
      vertex 50.0509 -1.25686 -1
      vertex 50.22 -1.13397 -1
    endloop
  endfacet
  facet normal -0.951057 0.309016 0
    outer loop
      vertex 51.6335 -2.40674 -1
      vertex 51.6981 -2.20791 1.001
      vertex 51.6981 -2.20791 -1
    endloop
  endfacet
  facet normal -0.951057 0.309016 0
    outer loop
      vertex 51.6981 -2.20791 1.001
      vertex 51.6335 -2.40674 -1
      vertex 51.6335 -2.40674 1.001
    endloop
  endfacet
  facet normal -0.866021 -0.500007 0
    outer loop
      vertex 51.6335 -1.59326 -1
      vertex 51.529 -1.41221 1.001
      vertex 51.529 -1.41221 -1
    endloop
  endfacet
  facet normal -0.866021 -0.500007 0
    outer loop
      vertex 51.529 -1.41221 1.001
      vertex 51.6335 -1.59326 -1
      vertex 51.6335 -1.59326 1.001
    endloop
  endfacet
  facet normal -0.951057 -0.309016 0
    outer loop
      vertex 51.6981 -1.79209 -1
      vertex 51.6335 -1.59326 1.001
      vertex 51.6335 -1.59326 -1
    endloop
  endfacet
  facet normal -0.951057 -0.309016 0
    outer loop
      vertex 51.6335 -1.59326 1.001
      vertex 51.6981 -1.79209 -1
      vertex 51.6981 -1.79209 1.001
    endloop
  endfacet
  facet normal -0.743148 -0.669128 0
    outer loop
      vertex 51.529 -1.41221 -1
      vertex 51.3891 -1.25686 1.001
      vertex 51.3891 -1.25686 -1
    endloop
  endfacet
  facet normal -0.743148 -0.669128 0
    outer loop
      vertex 51.3891 -1.25686 1.001
      vertex 51.529 -1.41221 -1
      vertex 51.529 -1.41221 1.001
    endloop
  endfacet
  facet normal -0.20791 -0.978148 0
    outer loop
      vertex 50.8245 -1.00548 -1
      vertex 51.029 -1.04894 1.001
      vertex 50.8245 -1.00548 1.001
    endloop
  endfacet
  facet normal -0.20791 -0.978148 -0
    outer loop
      vertex 51.029 -1.04894 1.001
      vertex 50.8245 -1.00548 -1
      vertex 51.029 -1.04894 -1
    endloop
  endfacet
  facet normal 0 -1 0
    outer loop
      vertex 50.6155 -1.00548 -1
      vertex 50.8245 -1.00548 1.001
      vertex 50.6155 -1.00548 1.001
    endloop
  endfacet
  facet normal 0 -1 -0
    outer loop
      vertex 50.8245 -1.00548 1.001
      vertex 50.6155 -1.00548 -1
      vertex 50.8245 -1.00548 -1
    endloop
  endfacet
  facet normal -0.406732 -0.913548 0
    outer loop
      vertex 51.029 -1.04894 -1
      vertex 51.22 -1.13397 1.001
      vertex 51.029 -1.04894 1.001
    endloop
  endfacet
  facet normal -0.406732 -0.913548 -0
    outer loop
      vertex 51.22 -1.13397 1.001
      vertex 51.029 -1.04894 -1
      vertex 51.22 -1.13397 -1
    endloop
  endfacet
  facet normal 0.994523 -0.10452 0
    outer loop
      vertex 49.72 -2 1.001
      vertex 49.7419 -1.79209 -1
      vertex 49.7419 -1.79209 1.001
    endloop
  endfacet
  facet normal 0.994523 -0.10452 0
    outer loop
      vertex 49.7419 -1.79209 -1
      vertex 49.72 -2 1.001
      vertex 49.72 -2 -1
    endloop
  endfacet
  facet normal 0.743148 -0.669128 0
    outer loop
      vertex 49.911 -1.41221 1.001
      vertex 50.0509 -1.25686 -1
      vertex 50.0509 -1.25686 1.001
    endloop
  endfacet
  facet normal 0.743148 -0.669128 0
    outer loop
      vertex 50.0509 -1.25686 -1
      vertex 49.911 -1.41221 1.001
      vertex 49.911 -1.41221 -1
    endloop
  endfacet
  facet normal 0.406739 -0.913545 0
    outer loop
      vertex 50.22 -1.13397 -1
      vertex 50.411 -1.04894 1.001
      vertex 50.22 -1.13397 1.001
    endloop
  endfacet
  facet normal 0.406739 -0.913545 0
    outer loop
      vertex 50.411 -1.04894 1.001
      vertex 50.22 -1.13397 -1
      vertex 50.411 -1.04894 -1
    endloop
  endfacet
  facet normal -0.994521 0.104538 0
    outer loop
      vertex 51.6981 -2.20791 -1
      vertex 51.72 -2 1.001
      vertex 51.72 -2 -1
    endloop
  endfacet
  facet normal -0.994521 0.104538 0
    outer loop
      vertex 51.72 -2 1.001
      vertex 51.6981 -2.20791 -1
      vertex 51.6981 -2.20791 1.001
    endloop
  endfacet
  facet normal 0.994523 0.10452 0
    outer loop
      vertex 49.7419 -2.20791 1.001
      vertex 49.72 -2 -1
      vertex 49.72 -2 1.001
    endloop
  endfacet
  facet normal 0.994523 0.10452 0
    outer loop
      vertex 49.72 -2 -1
      vertex 49.7419 -2.20791 1.001
      vertex 49.7419 -2.20791 -1
    endloop
  endfacet
  facet normal -0.743148 0.669128 0
    outer loop
      vertex 51.3891 -2.74314 -1
      vertex 51.529 -2.58778 1.001
      vertex 51.529 -2.58778 -1
    endloop
  endfacet
  facet normal -0.743148 0.669128 0
    outer loop
      vertex 51.529 -2.58778 1.001
      vertex 51.3891 -2.74314 -1
      vertex 51.3891 -2.74314 1.001
    endloop
  endfacet
  facet normal -0.866021 0.500007 0
    outer loop
      vertex 51.529 -2.58778 -1
      vertex 51.6335 -2.40674 1.001
      vertex 51.6335 -2.40674 -1
    endloop
  endfacet
  facet normal -0.866021 0.500007 0
    outer loop
      vertex 51.6335 -2.40674 1.001
      vertex 51.529 -2.58778 -1
      vertex 51.529 -2.58778 1.001
    endloop
  endfacet
  facet normal 0.406739 0.913545 -0
    outer loop
      vertex 50.411 -2.95106 -1
      vertex 50.22 -2.86602 1.001
      vertex 50.411 -2.95106 1.001
    endloop
  endfacet
  facet normal 0.406739 0.913545 0
    outer loop
      vertex 50.22 -2.86602 1.001
      vertex 50.411 -2.95106 -1
      vertex 50.22 -2.86602 -1
    endloop
  endfacet
  facet normal 0.743148 0.669128 0
    outer loop
      vertex 50.0509 -2.74314 1.001
      vertex 49.911 -2.58778 -1
      vertex 49.911 -2.58778 1.001
    endloop
  endfacet
  facet normal 0.743148 0.669128 0
    outer loop
      vertex 49.911 -2.58778 -1
      vertex 50.0509 -2.74314 1.001
      vertex 50.0509 -2.74314 -1
    endloop
  endfacet
  facet normal 0.20791 0.978148 -0
    outer loop
      vertex 50.6155 -2.99452 -1
      vertex 50.411 -2.95106 1.001
      vertex 50.6155 -2.99452 1.001
    endloop
  endfacet
  facet normal 0.20791 0.978148 0
    outer loop
      vertex 50.411 -2.95106 1.001
      vertex 50.6155 -2.99452 -1
      vertex 50.411 -2.95106 -1
    endloop
  endfacet
  facet normal 0.587783 0.809019 -0
    outer loop
      vertex 50.22 -2.86602 -1
      vertex 50.0509 -2.74314 1.001
      vertex 50.22 -2.86602 1.001
    endloop
  endfacet
  facet normal 0.587783 0.809019 0
    outer loop
      vertex 50.0509 -2.74314 1.001
      vertex 50.22 -2.86602 -1
      vertex 50.0509 -2.74314 -1
    endloop
  endfacet
  facet normal 0.866021 0.500007 0
    outer loop
      vertex 49.911 -2.58778 1.001
      vertex 49.8065 -2.40674 -1
      vertex 49.8065 -2.40674 1.001
    endloop
  endfacet
  facet normal 0.866021 0.500007 0
    outer loop
      vertex 49.8065 -2.40674 -1
      vertex 49.911 -2.58778 1.001
      vertex 49.911 -2.58778 -1
    endloop
  endfacet
  facet normal 0.951057 0.309016 0
    outer loop
      vertex 49.8065 -2.40674 1.001
      vertex 49.7419 -2.20791 -1
      vertex 49.7419 -2.20791 1.001
    endloop
  endfacet
  facet normal 0.951057 0.309016 0
    outer loop
      vertex 49.7419 -2.20791 -1
      vertex 49.8065 -2.40674 1.001
      vertex 49.8065 -2.40674 -1
    endloop
  endfacet
  facet normal -0.587791 0.809013 0
    outer loop
      vertex 51.3891 -2.74314 -1
      vertex 51.22 -2.86602 1.001
      vertex 51.3891 -2.74314 1.001
    endloop
  endfacet
  facet normal -0.587791 0.809013 0
    outer loop
      vertex 51.22 -2.86602 1.001
      vertex 51.3891 -2.74314 -1
      vertex 51.22 -2.86602 -1
    endloop
  endfacet
  facet normal -0.406732 0.913548 0
    outer loop
      vertex 51.22 -2.86602 -1
      vertex 51.029 -2.95106 1.001
      vertex 51.22 -2.86602 1.001
    endloop
  endfacet
  facet normal -0.406732 0.913548 0
    outer loop
      vertex 51.029 -2.95106 1.001
      vertex 51.22 -2.86602 -1
      vertex 51.029 -2.95106 -1
    endloop
  endfacet
  facet normal 0 1 -0
    outer loop
      vertex 50.8245 -2.99452 -1
      vertex 50.6155 -2.99452 1.001
      vertex 50.8245 -2.99452 1.001
    endloop
  endfacet
  facet normal 0 1 0
    outer loop
      vertex 50.6155 -2.99452 1.001
      vertex 50.8245 -2.99452 -1
      vertex 50.6155 -2.99452 -1
    endloop
  endfacet
  facet normal -0.994521 -0.104538 0
    outer loop
      vertex 41.72 2 -1
      vertex 41.6981 2.20791 1.001
      vertex 41.6981 2.20791 -1
    endloop
  endfacet
  facet normal -0.994521 -0.104538 0
    outer loop
      vertex 41.6981 2.20791 1.001
      vertex 41.72 2 -1
      vertex 41.72 2 1.001
    endloop
  endfacet
  facet normal 0.994523 -0.10452 0
    outer loop
      vertex 39.72 2 1.001
      vertex 39.7419 2.20791 -1
      vertex 39.7419 2.20791 1.001
    endloop
  endfacet
  facet normal 0.994523 -0.10452 0
    outer loop
      vertex 39.7419 2.20791 -1
      vertex 39.72 2 1.001
      vertex 39.72 2 -1
    endloop
  endfacet
  facet normal 0 -1 0
    outer loop
      vertex 40.6155 2.99452 -1
      vertex 40.8245 2.99452 1.001
      vertex 40.6155 2.99452 1.001
    endloop
  endfacet
  facet normal 0 -1 -0
    outer loop
      vertex 40.8245 2.99452 1.001
      vertex 40.6155 2.99452 -1
      vertex 40.8245 2.99452 -1
    endloop
  endfacet
  facet normal 0 1 -0
    outer loop
      vertex 40.8245 1.00548 -1
      vertex 40.6155 1.00548 1.001
      vertex 40.8245 1.00548 1.001
    endloop
  endfacet
  facet normal 0 1 0
    outer loop
      vertex 40.6155 1.00548 1.001
      vertex 40.8245 1.00548 -1
      vertex 40.6155 1.00548 -1
    endloop
  endfacet
  facet normal -0.587791 -0.809013 0
    outer loop
      vertex 41.22 2.86602 -1
      vertex 41.3891 2.74314 1.001
      vertex 41.22 2.86602 1.001
    endloop
  endfacet
  facet normal -0.587791 -0.809013 -0
    outer loop
      vertex 41.3891 2.74314 1.001
      vertex 41.22 2.86602 -1
      vertex 41.3891 2.74314 -1
    endloop
  endfacet
  facet normal -0.406739 -0.913545 0
    outer loop
      vertex 41.029 2.95106 -1
      vertex 41.22 2.86602 1.001
      vertex 41.029 2.95106 1.001
    endloop
  endfacet
  facet normal -0.406739 -0.913545 -0
    outer loop
      vertex 41.22 2.86602 1.001
      vertex 41.029 2.95106 -1
      vertex 41.22 2.86602 -1
    endloop
  endfacet
  facet normal 0.587783 -0.809019 0
    outer loop
      vertex 40.0509 2.74314 -1
      vertex 40.22 2.86602 1.001
      vertex 40.0509 2.74314 1.001
    endloop
  endfacet
  facet normal 0.587783 -0.809019 0
    outer loop
      vertex 40.22 2.86602 1.001
      vertex 40.0509 2.74314 -1
      vertex 40.22 2.86602 -1
    endloop
  endfacet
  facet normal 0.20791 -0.978148 0
    outer loop
      vertex 40.411 2.95106 -1
      vertex 40.6155 2.99452 1.001
      vertex 40.411 2.95106 1.001
    endloop
  endfacet
  facet normal 0.20791 -0.978148 0
    outer loop
      vertex 40.6155 2.99452 1.001
      vertex 40.411 2.95106 -1
      vertex 40.6155 2.99452 -1
    endloop
  endfacet
  facet normal -0.866029 0.499993 0
    outer loop
      vertex 41.529 1.41221 -1
      vertex 41.6335 1.59326 1.001
      vertex 41.6335 1.59326 -1
    endloop
  endfacet
  facet normal -0.866029 0.499993 0
    outer loop
      vertex 41.6335 1.59326 1.001
      vertex 41.529 1.41221 -1
      vertex 41.529 1.41221 1.001
    endloop
  endfacet
  facet normal -0.866029 -0.499993 0
    outer loop
      vertex 41.6335 2.40674 -1
      vertex 41.529 2.58778 1.001
      vertex 41.529 2.58778 -1
    endloop
  endfacet
  facet normal -0.866029 -0.499993 0
    outer loop
      vertex 41.529 2.58778 1.001
      vertex 41.6335 2.40674 -1
      vertex 41.6335 2.40674 1.001
    endloop
  endfacet
  facet normal -0.951057 -0.309016 0
    outer loop
      vertex 41.6981 2.20791 -1
      vertex 41.6335 2.40674 1.001
      vertex 41.6335 2.40674 -1
    endloop
  endfacet
  facet normal -0.951057 -0.309016 0
    outer loop
      vertex 41.6335 2.40674 1.001
      vertex 41.6981 2.20791 -1
      vertex 41.6981 2.20791 1.001
    endloop
  endfacet
  facet normal -0.743139 -0.669138 0
    outer loop
      vertex 41.529 2.58778 -1
      vertex 41.3891 2.74314 1.001
      vertex 41.3891 2.74314 -1
    endloop
  endfacet
  facet normal -0.743139 -0.669138 0
    outer loop
      vertex 41.3891 2.74314 1.001
      vertex 41.529 2.58778 -1
      vertex 41.529 2.58778 1.001
    endloop
  endfacet
  facet normal -0.207906 -0.978149 0
    outer loop
      vertex 40.8245 2.99452 -1
      vertex 41.029 2.95106 1.001
      vertex 40.8245 2.99452 1.001
    endloop
  endfacet
  facet normal -0.207906 -0.978149 -0
    outer loop
      vertex 41.029 2.95106 1.001
      vertex 40.8245 2.99452 -1
      vertex 41.029 2.95106 -1
    endloop
  endfacet
  facet normal 0.866021 -0.500007 0
    outer loop
      vertex 39.8065 2.40674 1.001
      vertex 39.911 2.58778 -1
      vertex 39.911 2.58778 1.001
    endloop
  endfacet
  facet normal 0.866021 -0.500007 0
    outer loop
      vertex 39.911 2.58778 -1
      vertex 39.8065 2.40674 1.001
      vertex 39.8065 2.40674 -1
    endloop
  endfacet
  facet normal 0.743148 -0.669128 0
    outer loop
      vertex 39.911 2.58778 1.001
      vertex 40.0509 2.74314 -1
      vertex 40.0509 2.74314 1.001
    endloop
  endfacet
  facet normal 0.743148 -0.669128 0
    outer loop
      vertex 40.0509 2.74314 -1
      vertex 39.911 2.58778 1.001
      vertex 39.911 2.58778 -1
    endloop
  endfacet
  facet normal 0.951057 -0.309016 0
    outer loop
      vertex 39.7419 2.20791 1.001
      vertex 39.8065 2.40674 -1
      vertex 39.8065 2.40674 1.001
    endloop
  endfacet
  facet normal 0.951057 -0.309016 0
    outer loop
      vertex 39.8065 2.40674 -1
      vertex 39.7419 2.20791 1.001
      vertex 39.7419 2.20791 -1
    endloop
  endfacet
  facet normal 0.406739 -0.913545 0
    outer loop
      vertex 40.22 2.86602 -1
      vertex 40.411 2.95106 1.001
      vertex 40.22 2.86602 1.001
    endloop
  endfacet
  facet normal 0.406739 -0.913545 0
    outer loop
      vertex 40.411 2.95106 1.001
      vertex 40.22 2.86602 -1
      vertex 40.411 2.95106 -1
    endloop
  endfacet
  facet normal -0.207906 0.978149 0
    outer loop
      vertex 41.029 1.04894 -1
      vertex 40.8245 1.00548 1.001
      vertex 41.029 1.04894 1.001
    endloop
  endfacet
  facet normal -0.207906 0.978149 0
    outer loop
      vertex 40.8245 1.00548 1.001
      vertex 41.029 1.04894 -1
      vertex 40.8245 1.00548 -1
    endloop
  endfacet
  facet normal -0.587791 0.809013 0
    outer loop
      vertex 41.3891 1.25686 -1
      vertex 41.22 1.13397 1.001
      vertex 41.3891 1.25686 1.001
    endloop
  endfacet
  facet normal -0.587791 0.809013 0
    outer loop
      vertex 41.22 1.13397 1.001
      vertex 41.3891 1.25686 -1
      vertex 41.22 1.13397 -1
    endloop
  endfacet
  facet normal -0.743139 0.669138 0
    outer loop
      vertex 41.3891 1.25686 -1
      vertex 41.529 1.41221 1.001
      vertex 41.529 1.41221 -1
    endloop
  endfacet
  facet normal -0.743139 0.669138 0
    outer loop
      vertex 41.529 1.41221 1.001
      vertex 41.3891 1.25686 -1
      vertex 41.3891 1.25686 1.001
    endloop
  endfacet
  facet normal -0.951057 0.309016 0
    outer loop
      vertex 41.6335 1.59326 -1
      vertex 41.6981 1.79209 1.001
      vertex 41.6981 1.79209 -1
    endloop
  endfacet
  facet normal -0.951057 0.309016 0
    outer loop
      vertex 41.6981 1.79209 1.001
      vertex 41.6335 1.59326 -1
      vertex 41.6335 1.59326 1.001
    endloop
  endfacet
  facet normal -0.994521 0.104538 0
    outer loop
      vertex 41.6981 1.79209 -1
      vertex 41.72 2 1.001
      vertex 41.72 2 -1
    endloop
  endfacet
  facet normal -0.994521 0.104538 0
    outer loop
      vertex 41.72 2 1.001
      vertex 41.6981 1.79209 -1
      vertex 41.6981 1.79209 1.001
    endloop
  endfacet
  facet normal 0.406739 0.913545 -0
    outer loop
      vertex 40.411 1.04894 -1
      vertex 40.22 1.13397 1.001
      vertex 40.411 1.04894 1.001
    endloop
  endfacet
  facet normal 0.406739 0.913545 0
    outer loop
      vertex 40.22 1.13397 1.001
      vertex 40.411 1.04894 -1
      vertex 40.22 1.13397 -1
    endloop
  endfacet
  facet normal 0.866021 0.500007 0
    outer loop
      vertex 39.911 1.41221 1.001
      vertex 39.8065 1.59326 -1
      vertex 39.8065 1.59326 1.001
    endloop
  endfacet
  facet normal 0.866021 0.500007 0
    outer loop
      vertex 39.8065 1.59326 -1
      vertex 39.911 1.41221 1.001
      vertex 39.911 1.41221 -1
    endloop
  endfacet
  facet normal -0.406739 0.913545 0
    outer loop
      vertex 41.22 1.13397 -1
      vertex 41.029 1.04894 1.001
      vertex 41.22 1.13397 1.001
    endloop
  endfacet
  facet normal -0.406739 0.913545 0
    outer loop
      vertex 41.029 1.04894 1.001
      vertex 41.22 1.13397 -1
      vertex 41.029 1.04894 -1
    endloop
  endfacet
  facet normal 0.20791 0.978148 -0
    outer loop
      vertex 40.6155 1.00548 -1
      vertex 40.411 1.04894 1.001
      vertex 40.6155 1.00548 1.001
    endloop
  endfacet
  facet normal 0.20791 0.978148 0
    outer loop
      vertex 40.411 1.04894 1.001
      vertex 40.6155 1.00548 -1
      vertex 40.411 1.04894 -1
    endloop
  endfacet
  facet normal 0.587783 0.809019 -0
    outer loop
      vertex 40.22 1.13397 -1
      vertex 40.0509 1.25686 1.001
      vertex 40.22 1.13397 1.001
    endloop
  endfacet
  facet normal 0.587783 0.809019 0
    outer loop
      vertex 40.0509 1.25686 1.001
      vertex 40.22 1.13397 -1
      vertex 40.0509 1.25686 -1
    endloop
  endfacet
  facet normal 0.743148 0.669128 0
    outer loop
      vertex 40.0509 1.25686 1.001
      vertex 39.911 1.41221 -1
      vertex 39.911 1.41221 1.001
    endloop
  endfacet
  facet normal 0.743148 0.669128 0
    outer loop
      vertex 39.911 1.41221 -1
      vertex 40.0509 1.25686 1.001
      vertex 40.0509 1.25686 -1
    endloop
  endfacet
  facet normal 0.951057 0.309016 0
    outer loop
      vertex 39.8065 1.59326 1.001
      vertex 39.7419 1.79209 -1
      vertex 39.7419 1.79209 1.001
    endloop
  endfacet
  facet normal 0.951057 0.309016 0
    outer loop
      vertex 39.7419 1.79209 -1
      vertex 39.8065 1.59326 1.001
      vertex 39.8065 1.59326 -1
    endloop
  endfacet
  facet normal 0.994523 0.10452 0
    outer loop
      vertex 39.7419 1.79209 1.001
      vertex 39.72 2 -1
      vertex 39.72 2 1.001
    endloop
  endfacet
  facet normal 0.994523 0.10452 0
    outer loop
      vertex 39.72 2 -1
      vertex 39.7419 1.79209 1.001
      vertex 39.7419 1.79209 -1
    endloop
  endfacet
  facet normal -0.994521 -0.104538 0
    outer loop
      vertex 41.72 -2 -1
      vertex 41.6981 -1.79209 1.001
      vertex 41.6981 -1.79209 -1
    endloop
  endfacet
  facet normal -0.994521 -0.104538 0
    outer loop
      vertex 41.6981 -1.79209 1.001
      vertex 41.72 -2 -1
      vertex 41.72 -2 1.001
    endloop
  endfacet
  facet normal 0.994523 -0.10452 0
    outer loop
      vertex 39.72 -2 1.001
      vertex 39.7419 -1.79209 -1
      vertex 39.7419 -1.79209 1.001
    endloop
  endfacet
  facet normal 0.994523 -0.10452 0
    outer loop
      vertex 39.7419 -1.79209 -1
      vertex 39.72 -2 1.001
      vertex 39.72 -2 -1
    endloop
  endfacet
  facet normal 0 -1 0
    outer loop
      vertex 40.6155 -1.00548 -1
      vertex 40.8245 -1.00548 1.001
      vertex 40.6155 -1.00548 1.001
    endloop
  endfacet
  facet normal 0 -1 -0
    outer loop
      vertex 40.8245 -1.00548 1.001
      vertex 40.6155 -1.00548 -1
      vertex 40.8245 -1.00548 -1
    endloop
  endfacet
  facet normal -0.587791 -0.809013 0
    outer loop
      vertex 41.22 -1.13397 -1
      vertex 41.3891 -1.25686 1.001
      vertex 41.22 -1.13397 1.001
    endloop
  endfacet
  facet normal -0.587791 -0.809013 -0
    outer loop
      vertex 41.3891 -1.25686 1.001
      vertex 41.22 -1.13397 -1
      vertex 41.3891 -1.25686 -1
    endloop
  endfacet
  facet normal -0.406739 -0.913545 0
    outer loop
      vertex 41.029 -1.04894 -1
      vertex 41.22 -1.13397 1.001
      vertex 41.029 -1.04894 1.001
    endloop
  endfacet
  facet normal -0.406739 -0.913545 -0
    outer loop
      vertex 41.22 -1.13397 1.001
      vertex 41.029 -1.04894 -1
      vertex 41.22 -1.13397 -1
    endloop
  endfacet
  facet normal 0.587783 -0.809019 0
    outer loop
      vertex 40.0509 -1.25686 -1
      vertex 40.22 -1.13397 1.001
      vertex 40.0509 -1.25686 1.001
    endloop
  endfacet
  facet normal 0.587783 -0.809019 0
    outer loop
      vertex 40.22 -1.13397 1.001
      vertex 40.0509 -1.25686 -1
      vertex 40.22 -1.13397 -1
    endloop
  endfacet
  facet normal 0.20791 -0.978148 0
    outer loop
      vertex 40.411 -1.04894 -1
      vertex 40.6155 -1.00548 1.001
      vertex 40.411 -1.04894 1.001
    endloop
  endfacet
  facet normal 0.20791 -0.978148 0
    outer loop
      vertex 40.6155 -1.00548 1.001
      vertex 40.411 -1.04894 -1
      vertex 40.6155 -1.00548 -1
    endloop
  endfacet
  facet normal -0.866029 0.499993 0
    outer loop
      vertex 41.529 -2.58778 -1
      vertex 41.6335 -2.40674 1.001
      vertex 41.6335 -2.40674 -1
    endloop
  endfacet
  facet normal -0.866029 0.499993 0
    outer loop
      vertex 41.6335 -2.40674 1.001
      vertex 41.529 -2.58778 -1
      vertex 41.529 -2.58778 1.001
    endloop
  endfacet
  facet normal -0.866029 -0.499993 0
    outer loop
      vertex 41.6335 -1.59326 -1
      vertex 41.529 -1.41221 1.001
      vertex 41.529 -1.41221 -1
    endloop
  endfacet
  facet normal -0.866029 -0.499993 0
    outer loop
      vertex 41.529 -1.41221 1.001
      vertex 41.6335 -1.59326 -1
      vertex 41.6335 -1.59326 1.001
    endloop
  endfacet
  facet normal -0.951057 -0.309016 0
    outer loop
      vertex 41.6981 -1.79209 -1
      vertex 41.6335 -1.59326 1.001
      vertex 41.6335 -1.59326 -1
    endloop
  endfacet
  facet normal -0.951057 -0.309016 0
    outer loop
      vertex 41.6335 -1.59326 1.001
      vertex 41.6981 -1.79209 -1
      vertex 41.6981 -1.79209 1.001
    endloop
  endfacet
  facet normal -0.743139 -0.669138 0
    outer loop
      vertex 41.529 -1.41221 -1
      vertex 41.3891 -1.25686 1.001
      vertex 41.3891 -1.25686 -1
    endloop
  endfacet
  facet normal -0.743139 -0.669138 0
    outer loop
      vertex 41.3891 -1.25686 1.001
      vertex 41.529 -1.41221 -1
      vertex 41.529 -1.41221 1.001
    endloop
  endfacet
  facet normal -0.207906 -0.978149 0
    outer loop
      vertex 40.8245 -1.00548 -1
      vertex 41.029 -1.04894 1.001
      vertex 40.8245 -1.00548 1.001
    endloop
  endfacet
  facet normal -0.207906 -0.978149 -0
    outer loop
      vertex 41.029 -1.04894 1.001
      vertex 40.8245 -1.00548 -1
      vertex 41.029 -1.04894 -1
    endloop
  endfacet
  facet normal 0.866021 -0.500007 0
    outer loop
      vertex 39.8065 -1.59326 1.001
      vertex 39.911 -1.41221 -1
      vertex 39.911 -1.41221 1.001
    endloop
  endfacet
  facet normal 0.866021 -0.500007 0
    outer loop
      vertex 39.911 -1.41221 -1
      vertex 39.8065 -1.59326 1.001
      vertex 39.8065 -1.59326 -1
    endloop
  endfacet
  facet normal 0.743148 -0.669128 0
    outer loop
      vertex 39.911 -1.41221 1.001
      vertex 40.0509 -1.25686 -1
      vertex 40.0509 -1.25686 1.001
    endloop
  endfacet
  facet normal 0.743148 -0.669128 0
    outer loop
      vertex 40.0509 -1.25686 -1
      vertex 39.911 -1.41221 1.001
      vertex 39.911 -1.41221 -1
    endloop
  endfacet
  facet normal 0.951057 -0.309016 0
    outer loop
      vertex 39.7419 -1.79209 1.001
      vertex 39.8065 -1.59326 -1
      vertex 39.8065 -1.59326 1.001
    endloop
  endfacet
  facet normal 0.951057 -0.309016 0
    outer loop
      vertex 39.8065 -1.59326 -1
      vertex 39.7419 -1.79209 1.001
      vertex 39.7419 -1.79209 -1
    endloop
  endfacet
  facet normal 0.406739 -0.913545 0
    outer loop
      vertex 40.22 -1.13397 -1
      vertex 40.411 -1.04894 1.001
      vertex 40.22 -1.13397 1.001
    endloop
  endfacet
  facet normal 0.406739 -0.913545 0
    outer loop
      vertex 40.411 -1.04894 1.001
      vertex 40.22 -1.13397 -1
      vertex 40.411 -1.04894 -1
    endloop
  endfacet
  facet normal -0.994521 0.104538 0
    outer loop
      vertex 41.6981 -2.20791 -1
      vertex 41.72 -2 1.001
      vertex 41.72 -2 -1
    endloop
  endfacet
  facet normal -0.994521 0.104538 0
    outer loop
      vertex 41.72 -2 1.001
      vertex 41.6981 -2.20791 -1
      vertex 41.6981 -2.20791 1.001
    endloop
  endfacet
  facet normal 0.20791 0.978148 -0
    outer loop
      vertex 40.6155 -2.99452 -1
      vertex 40.411 -2.95106 1.001
      vertex 40.6155 -2.99452 1.001
    endloop
  endfacet
  facet normal 0.20791 0.978148 0
    outer loop
      vertex 40.411 -2.95106 1.001
      vertex 40.6155 -2.99452 -1
      vertex 40.411 -2.95106 -1
    endloop
  endfacet
  facet normal -0.207906 0.978149 0
    outer loop
      vertex 41.029 -2.95106 -1
      vertex 40.8245 -2.99452 1.001
      vertex 41.029 -2.95106 1.001
    endloop
  endfacet
  facet normal -0.207906 0.978149 0
    outer loop
      vertex 40.8245 -2.99452 1.001
      vertex 41.029 -2.95106 -1
      vertex 40.8245 -2.99452 -1
    endloop
  endfacet
  facet normal -0.587791 0.809013 0
    outer loop
      vertex 41.3891 -2.74314 -1
      vertex 41.22 -2.86602 1.001
      vertex 41.3891 -2.74314 1.001
    endloop
  endfacet
  facet normal -0.587791 0.809013 0
    outer loop
      vertex 41.22 -2.86602 1.001
      vertex 41.3891 -2.74314 -1
      vertex 41.22 -2.86602 -1
    endloop
  endfacet
  facet normal -0.743139 0.669138 0
    outer loop
      vertex 41.3891 -2.74314 -1
      vertex 41.529 -2.58778 1.001
      vertex 41.529 -2.58778 -1
    endloop
  endfacet
  facet normal -0.743139 0.669138 0
    outer loop
      vertex 41.529 -2.58778 1.001
      vertex 41.3891 -2.74314 -1
      vertex 41.3891 -2.74314 1.001
    endloop
  endfacet
  facet normal -0.951057 0.309016 0
    outer loop
      vertex 41.6335 -2.40674 -1
      vertex 41.6981 -2.20791 1.001
      vertex 41.6981 -2.20791 -1
    endloop
  endfacet
  facet normal -0.951057 0.309016 0
    outer loop
      vertex 41.6981 -2.20791 1.001
      vertex 41.6335 -2.40674 -1
      vertex 41.6335 -2.40674 1.001
    endloop
  endfacet
  facet normal 0.866021 0.500007 0
    outer loop
      vertex 39.911 -2.58778 1.001
      vertex 39.8065 -2.40674 -1
      vertex 39.8065 -2.40674 1.001
    endloop
  endfacet
  facet normal 0.866021 0.500007 0
    outer loop
      vertex 39.8065 -2.40674 -1
      vertex 39.911 -2.58778 1.001
      vertex 39.911 -2.58778 -1
    endloop
  endfacet
  facet normal 0.994523 0.10452 0
    outer loop
      vertex 39.7419 -2.20791 1.001
      vertex 39.72 -2 -1
      vertex 39.72 -2 1.001
    endloop
  endfacet
  facet normal 0.994523 0.10452 0
    outer loop
      vertex 39.72 -2 -1
      vertex 39.7419 -2.20791 1.001
      vertex 39.7419 -2.20791 -1
    endloop
  endfacet
  facet normal 0.951057 0.309016 0
    outer loop
      vertex 39.8065 -2.40674 1.001
      vertex 39.7419 -2.20791 -1
      vertex 39.7419 -2.20791 1.001
    endloop
  endfacet
  facet normal 0.951057 0.309016 0
    outer loop
      vertex 39.7419 -2.20791 -1
      vertex 39.8065 -2.40674 1.001
      vertex 39.8065 -2.40674 -1
    endloop
  endfacet
  facet normal -0.406739 0.913545 0
    outer loop
      vertex 41.22 -2.86602 -1
      vertex 41.029 -2.95106 1.001
      vertex 41.22 -2.86602 1.001
    endloop
  endfacet
  facet normal -0.406739 0.913545 0
    outer loop
      vertex 41.029 -2.95106 1.001
      vertex 41.22 -2.86602 -1
      vertex 41.029 -2.95106 -1
    endloop
  endfacet
  facet normal 0 1 -0
    outer loop
      vertex 40.8245 -2.99452 -1
      vertex 40.6155 -2.99452 1.001
      vertex 40.8245 -2.99452 1.001
    endloop
  endfacet
  facet normal 0 1 0
    outer loop
      vertex 40.6155 -2.99452 1.001
      vertex 40.8245 -2.99452 -1
      vertex 40.6155 -2.99452 -1
    endloop
  endfacet
  facet normal 0.587783 0.809019 -0
    outer loop
      vertex 40.22 -2.86602 -1
      vertex 40.0509 -2.74314 1.001
      vertex 40.22 -2.86602 1.001
    endloop
  endfacet
  facet normal 0.587783 0.809019 0
    outer loop
      vertex 40.0509 -2.74314 1.001
      vertex 40.22 -2.86602 -1
      vertex 40.0509 -2.74314 -1
    endloop
  endfacet
  facet normal 0.743148 0.669128 0
    outer loop
      vertex 40.0509 -2.74314 1.001
      vertex 39.911 -2.58778 -1
      vertex 39.911 -2.58778 1.001
    endloop
  endfacet
  facet normal 0.743148 0.669128 0
    outer loop
      vertex 39.911 -2.58778 -1
      vertex 40.0509 -2.74314 1.001
      vertex 40.0509 -2.74314 -1
    endloop
  endfacet
  facet normal 0.406739 0.913545 -0
    outer loop
      vertex 40.411 -2.95106 -1
      vertex 40.22 -2.86602 1.001
      vertex 40.411 -2.95106 1.001
    endloop
  endfacet
  facet normal 0.406739 0.913545 0
    outer loop
      vertex 40.22 -2.86602 1.001
      vertex 40.411 -2.95106 -1
      vertex 40.22 -2.86602 -1
    endloop
  endfacet
endsolid OpenSCAD_Model
